SplineFontDB: 3.2
FontName: material
FullName: Material
FamilyName: material
Weight: Regular
Copyright: Copyright (c) 2020, Josef Gabrielsson
Version: 001.000
ItalicAngle: 0
UnderlinePosition: -204
UnderlineWidth: 102
Ascent: 1638
Descent: 410
InvalidEm: 0
sfntRevision: 0x00010000
woffMajor: 1
woffMinor: 0
LayerCount: 2
Layer: 0 0 "Back" 1
Layer: 1 0 "Fore" 0
XUID: [1021 986 1535960322 31019]
StyleMap: 0x0000
FSType: 0
OS2Version: 4
OS2_WeightWidthSlopeOnly: 0
OS2_UseTypoMetrics: 1
CreationTime: 1595553504
ModificationTime: 1613529925
PfmFamily: 17
TTFWeight: 400
TTFWidth: 5
LineGap: 184
VLineGap: 0
Panose: 2 0 5 9 0 0 0 0 0 0
OS2TypoAscent: 1638
OS2TypoAOffset: 0
OS2TypoDescent: -410
OS2TypoDOffset: 0
OS2TypoLinegap: 184
OS2WinAscent: 1638
OS2WinAOffset: 0
OS2WinDescent: 324
OS2WinDOffset: 0
HheadAscent: 1638
HheadAOffset: 0
HheadDescent: -324
HheadDOffset: 0
OS2SubXSize: 1331
OS2SubYSize: 1432
OS2SubXOff: 0
OS2SubYOff: 287
OS2SupXSize: 1331
OS2SupYSize: 1432
OS2SupXOff: 0
OS2SupYOff: 981
OS2StrikeYSize: 100
OS2StrikeYPos: 528
OS2Vendor: 'PfEd'
OS2CodePages: 00000001.00000000
OS2UnicodeRanges: 00000023.0280e4c6.00000000.00000000
MarkAttachClasses: 1
DEI: 91125
LangName: 1033
Encoding: UnicodeFull
UnicodeInterp: none
NameList: AGL For New Fonts
DisplaySize: -48
AntiAlias: 1
FitToEm: 0
WinInfo: 129488 16 6
BeginPrivate: 7
BlueValues 37 [-94 -25 881 899 1356 1382 1397 1403]
OtherBlues 11 [-532 -467]
BlueScale 8 0.029411
StdHW 5 [170]
StdVW 5 [170]
StemSnapH 5 [170]
StemSnapV 5 [170]
EndPrivate
TeXData: 1 0 0 346030 173015 115343 0 1048576 115343 783286 444596 497025 792723 393216 433062 380633 303038 157286 324010 404750 52429 2506097 1059062 262144
BeginChars: 1114113 132

StartChar: .notdef
Encoding: 1114112 -1 0
Width: 2048
Flags: HMW
HStem: 0 102<205 1843 205 1946> 989 102<205 1843 205 205>
VStem: 102 102<102 102 102 989> 1843 102<102 989 989 989>
LayerCount: 2
Fore
SplineSet
102 0 m 1
 102 1092 l 1
 1946 1092 l 1
 1946 0 l 1
 102 0 l 1
205 102 m 1
 1843 102 l 1
 1843 989 l 1
 205 989 l 1
 205 102 l 1
EndSplineSet
Validated: 1
EndChar

StartChar: dollar
Encoding: 36 36 1
Width: 2048
Flags: HMW
HStem: -154 333<893 1076 893 1109 853 1076> 1050 333<909 1057>
VStem: 539 188 555 196 853 256 1195 189 1212 196
LayerCount: 2
Fore
SplineSet
1007 708 m 0xdc
 1201 658 1408 575 1408 333 c 0
 1408 158 1275 62 1109 30 c 1
 1109 -154 l 1
 853 -154 l 1
 853 32 l 1
 689 67 549 171 539 358 c 1
 727 358 l 1
 736 257 805 179 981 179 c 0
 1170 179 1212 273 1212 332 c 0xea
 1212 411 1169 487 956 538 c 0
 718 595 555 693 555 890 c 0
 555 1055 687 1162 853 1198 c 1
 853 1382 l 1
 1109 1382 l 1
 1109 1196 l 1
 1287 1152 1377 1017 1383 870 c 1
 1195 870 l 1
 1190 977 1133 1050 981 1050 c 0
 837 1050 751 985 751 892 c 0
 751 811 813 758 1007 708 c 0xdc
EndSplineSet
Validated: 1
EndChar

StartChar: question
Encoding: 63 63 2
Width: 2048
Flags: HMW
HStem: -239 256<939 1109 939 1260> 188 171<939 1109 939 1109> 1212 256<930 1118>
VStem: 1365 512<833 850 379 965>
LayerCount: 2
Fore
SplineSet
1024 1468 m 0
 1495 1468 1877 1085 1877 614 c 0
 1877 143 1495 -239 1024 -239 c 0
 553 -239 171 143 171 614 c 0
 171 1085 553 1468 1024 1468 c 0
1109 17 m 1
 1109 188 l 1
 939 188 l 1
 939 17 l 1
 1109 17 l 1
1286 678 m 2
 1335 727 1365 795 1365 870 c 0
 1365 1059 1213 1212 1024 1212 c 0
 835 1212 683 1059 683 870 c 1
 853 870 l 1
 853 964 930 1041 1024 1041 c 0
 1118 1041 1195 964 1195 870 c 0
 1195 823 1176 781 1144 750 c 2
 1039 643 l 2
 978 581 939 495 939 401 c 2
 939 358 l 1
 1109 358 l 1
 1109 486 1148 538 1209 600 c 2
 1286 678 l 2
EndSplineSet
Validated: 1
EndChar

StartChar: copyright
Encoding: 169 169 3
Width: 2048
Flags: HMW
HStem: -239 171 241 129 858 131 1297 171
VStem: 171 171 683 171 1151 153 1707 171
LayerCount: 2
Fore
SplineSet
1014 858 m 0
 963 856 853 849 853 602 c 0
 853 459 900 372 1012 369 c 0
 1113 374 1148 442 1151 492 c 1
 1304 492 l 1
 1301 381 1199 241 1010 241 c 0
 762 241 683 436 683 602 c 0
 683 870 822 989 1011 989 c 0
 1178 989 1299 886 1306 717 c 1
 1153 717 l 1
 1151 761 1123 853 1014 858 c 0
1024 1468 m 0
 1495 1468 1877 1085 1877 614 c 0
 1877 143 1495 -239 1024 -239 c 0
 553 -239 171 143 171 614 c 0
 171 1085 553 1468 1024 1468 c 0
1024 -68 m 0
 1400 -68 1707 238 1707 614 c 0
 1707 990 1400 1297 1024 1297 c 0
 648 1297 341 990 341 614 c 0
 341 238 648 -68 1024 -68 c 0
EndSplineSet
Validated: 1
EndChar

StartChar: uni02C2
Encoding: 706 706 4
Width: 2048
Flags: HMW
VStem: 683 632
LayerCount: 2
Fore
SplineSet
1315 223 m 1
 1195 102 l 1
 683 614 l 1
 1195 1126 l 1
 1315 1006 l 1
 924 614 l 1
 1315 223 l 1
EndSplineSet
Validated: 1
EndChar

StartChar: uni02C3
Encoding: 707 707 5
Width: 2048
Flags: HMW
VStem: 733 632
LayerCount: 2
Fore
SplineSet
733 223 m 1
 1124 614 l 1
 733 1006 l 1
 853 1126 l 1
 1365 614 l 1
 853 102 l 1
 733 223 l 1
EndSplineSet
Validated: 1
EndChar

StartChar: uni02C4
Encoding: 708 708 6
Width: 2048
Flags: HMW
HStem: 323 632
LayerCount: 2
Fore
SplineSet
632 323 m 1
 512 444 l 1
 1024 956 l 1
 1536 444 l 1
 1416 323 l 1
 1024 714 l 1
 632 323 l 1
EndSplineSet
Validated: 1
EndChar

StartChar: uni02C5
Encoding: 709 709 7
Width: 2048
Flags: HMW
HStem: 273 632
LayerCount: 2
Fore
SplineSet
632 905 m 1
 1024 515 l 1
 1416 905 l 1
 1536 785 l 1
 1024 273 l 1
 512 785 l 1
 632 905 l 1
EndSplineSet
Validated: 1
EndChar

StartChar: Euro
Encoding: 8364 8364 8
Width: 2048
Flags: HMW
HStem: -154 213 358 171 700 171 1169 213
VStem: 512 213
LayerCount: 2
Fore
SplineSet
1280 60 m 0
 1418 60 1544 110 1640 194 c 1
 1792 43 l 1
 1656 -79 1477 -154 1280 -154 c 0
 945 -154 662 60 556 358 c 1
 256 358 l 1
 256 529 l 1
 517 529 l 1
 514 557 512 585 512 614 c 0
 512 643 514 672 517 700 c 1
 256 700 l 1
 256 870 l 1
 556 870 l 1
 662 1168 945 1382 1280 1382 c 0
 1476 1382 1656 1308 1792 1186 c 1
 1641 1035 l 1
 1544 1119 1417 1169 1280 1169 c 0
 1067 1169 880 1047 788 870 c 1
 1280 870 l 1
 1280 700 l 1
 732 700 l 1
 728 672 725 643 725 614 c 0
 725 585 728 557 732 529 c 1
 1280 529 l 1
 1280 358 l 1
 788 358 l 1
 880 181 1066 60 1280 60 c 0
EndSplineSet
Validated: 1
EndChar

StartChar: uni20E0
Encoding: 8416 8416 9
Width: 2048
Flags: HMW
HStem: -239 171 1297 171
VStem: 171 171 1707 171
LayerCount: 2
Fore
SplineSet
1024 1468 m 0
 1495 1468 1877 1085 1877 614 c 0
 1877 143 1495 -239 1024 -239 c 0
 553 -239 171 143 171 614 c 0
 171 1085 553 1468 1024 1468 c 0
1024 -68 m 0
 1182 -68 1327 -14 1442 76 c 1
 486 1033 l 1
 396 918 341 772 341 614 c 0
 341 237 647 -68 1024 -68 c 0
1562 196 m 1
 1652 311 1707 456 1707 614 c 0
 1707 991 1401 1297 1024 1297 c 0
 866 1297 721 1243 606 1153 c 1
 1562 196 l 1
EndSplineSet
Validated: 1
EndChar

StartChar: equivalence
Encoding: 8801 8801 10
Width: 2048
Flags: HMW
HStem: 102 171 529 171 956 171
CounterMasks: 1 e0
LayerCount: 2
Fore
SplineSet
256 102 m 1
 256 273 l 1
 1792 273 l 1
 1792 102 l 1
 256 102 l 1
256 529 m 1
 256 700 l 1
 1792 700 l 1
 1792 529 l 1
 256 529 l 1
256 1126 m 1
 1792 1126 l 1
 1792 956 l 1
 256 956 l 1
 256 1126 l 1
EndSplineSet
Validated: 1
EndChar

StartChar: house
Encoding: 8962 8962 11
Width: 2048
Flags: HMW
HStem: 444 341
VStem: 427 427 1195 427 1365 256
LayerCount: 2
Fore
SplineSet
1621 845 m 1xe0
 1877 614 l 1
 1621 614 l 1xd0
 1621 -68 l 1
 1195 -68 l 1
 1195 444 l 1xe0
 853 444 l 1
 853 -68 l 1
 427 -68 l 1
 427 614 l 1
 171 614 l 1
 1024 1382 l 1
 1365 1075 l 1
 1365 1297 l 1
 1621 1297 l 1xd0
 1621 845 l 1xe0
853 785 m 1
 1195 785 l 1xe0
 1195 879 1118 956 1024 956 c 0
 930 956 853 879 853 785 c 1
EndSplineSet
Validated: 1
EndChar

StartChar: uni231B
Encoding: 8987 8987 12
Width: 2048
Flags: HMW
HStem: 1297 171
VStem: 512 171 1365 170
LayerCount: 2
Fore
SplineSet
1536 -239 m 1
 512 -239 l 1
 512 274 l 1
 853 614 l 1
 512 956 l 1
 512 1468 l 1
 1536 1468 l 1
 1535 957 l 1
 1195 614 l 1
 1535 273 l 1
 1536 -239 l 1
683 998 m 1
 1024 657 l 1
 1365 998 l 1
 1365 1297 l 1
 683 1297 l 1
 683 998 l 1
EndSplineSet
Validated: 1
EndChar

StartChar: uni23F3
Encoding: 9203 9203 13
Width: 2048
Flags: HMW
HStem: -239 171
VStem: 512 171 1365 171
LayerCount: 2
Fore
SplineSet
512 1468 m 1
 1536 1468 l 1
 1536 955 l 1
 1195 614 l 1
 1536 273 l 1
 1536 -239 l 1
 512 -239 l 1
 513 272 l 1
 853 614 l 1
 513 956 l 1
 512 1468 l 1
1365 230 m 1
 1024 572 l 1
 683 230 l 1
 683 -68 l 1
 1365 -68 l 1
 1365 230 l 1
EndSplineSet
Validated: 1
EndChar

StartChar: uni24D5
Encoding: 9429 9429 14
Width: 2048
Flags: HMW
HStem: 614 256<1195 1365 1195 1365 1109 1365> 1126 341
VStem: 1365 512
LayerCount: 2
Fore
SplineSet
1877 614 m 0
 1877 171 1540 -192 1109 -235 c 1
 1109 358 l 1
 1365 358 l 1
 1365 614 l 1
 1109 614 l 1
 1109 785 l 2
 1109 832 1148 870 1195 870 c 2
 1365 870 l 1
 1365 1126 l 1
 1152 1126 l 2
 987 1126 853 993 853 828 c 2
 853 614 l 1
 683 614 l 1
 683 358 l 1
 853 358 l 1
 853 -222 l 1
 464 -143 171 201 171 614 c 0
 171 1085 553 1468 1024 1468 c 0
 1495 1468 1877 1085 1877 614 c 0
EndSplineSet
Validated: 1
EndChar

StartChar: filledbox
Encoding: 9632 9632 15
Width: 2048
Flags: HMW
HStem: -154 1621
VStem: 85 1877
LayerCount: 2
Fore
SplineSet
85 -154 m 1
 85 1468 l 1
 1963 1468 l 1
 1963 -154 l 1
 85 -154 l 1
EndSplineSet
Validated: 1
EndChar

StartChar: triagup
Encoding: 9650 9650 16
Width: 2048
Flags: W
LayerCount: 2
Fore
SplineSet
85 -154 m 1
 1024 1468 l 1
 1963 -154 l 1
 85 -154 l 1
EndSplineSet
Validated: 1
EndChar

StartChar: uni25B5
Encoding: 9653 9653 17
Width: 2048
Flags: HMW
HStem: -68 171
LayerCount: 2
Fore
SplineSet
1024 975 m 1
 479 102 l 1
 1569 102 l 1
 1024 975 l 1
1024 1297 m 1
 1877 -68 l 1
 171 -68 l 1
 1024 1297 l 1
EndSplineSet
Validated: 1
EndChar

StartChar: H18533
Encoding: 9679 9679 18
Width: 2048
Flags: HMW
HStem: -239 1707
VStem: 171 1707
LayerCount: 2
Fore
SplineSet
1024 1468 m 0
 1495 1468 1877 1085 1877 614 c 0
 1877 143 1495 -239 1024 -239 c 0
 553 -239 171 143 171 614 c 0
 171 1085 553 1468 1024 1468 c 0
EndSplineSet
Validated: 1
EndChar

StartChar: uni2601
Encoding: 9729 9729 19
Width: 2048
Flags: HMW
HStem: -68 1365
LayerCount: 2
Fore
SplineSet
1651 782 m 1
 1873 767 2048 583 2048 358 c 0
 2048 122 1857 -68 1621 -68 c 2
 512 -68 l 2
 230 -68 0 162 0 444 c 0
 0 708 200 925 457 952 c 1
 564 1157 777 1297 1024 1297 c 0
 1335 1297 1593 1076 1651 782 c 1
EndSplineSet
Validated: 1
EndChar

StartChar: uni2602
Encoding: 9730 9730 20
Width: 2048
Flags: HMW
HStem: 1389 164
VStem: 939 171 1195 171
LayerCount: 2
Fore
SplineSet
1237 1048 m 1
 1536 1120 l 1
 1105 -180 l 2
 1092 -219 1058 -239 1024 -239 c 0
 990 -239 956 -219 943 -181 c 2
 512 1120 l 1
 811 1048 l 1
 939 1146 l 1
 939 1307 l 1
 939 1348 l 2
 939 1461 1034 1553 1152 1553 c 0
 1270 1553 1365 1461 1365 1348 c 2
 1365 1297 l 1
 1195 1297 l 1
 1195 1348 l 2
 1195 1371 1176 1389 1152 1389 c 0
 1128 1389 1109 1370 1109 1348 c 2
 1109 1307 l 1
 1109 1146 l 1
 1237 1048 l 1
1133 913 m 1
 1109 931 l 1
 1109 375 l 1
 1277 883 l 1
 1198 864 l 1
 1133 913 l 1
850 863 m 1
 771 882 l 1
 939 375 l 1
 939 931 l 1
 915 912 l 1
 850 863 l 1
EndSplineSet
Validated: 1
EndChar

StartChar: uni2605
Encoding: 9733 9733 21
Width: 2048
Flags: W
LayerCount: 2
Fore
SplineSet
1231 785 m 1
 1877 785 l 1
 1351 409 l 1
 1551 -239 l 1
 1024 161 l 1
 497 -239 l 1
 698 409 l 1
 171 785 l 1
 817 785 l 1
 1024 1468 l 1
 1231 785 l 1
EndSplineSet
Validated: 1
EndChar

StartChar: uni2661
Encoding: 9825 9825 22
Width: 2048
Flags: HMW
HStem: 1212 171
VStem: 171 171 1707 171
LayerCount: 2
Fore
SplineSet
1408 1382 m 0
 1671 1382 1877 1176 1877 913 c 0
 1877 590 1587 328 1148 -71 c 2
 1024 -183 l 1
 900 -72 l 2
 461 327 171 590 171 913 c 0
 171 1176 377 1382 640 1382 c 0
 788 1382 931 1313 1024 1204 c 1
 1117 1313 1260 1382 1408 1382 c 0
1033 55 m 1
 1439 423 1707 666 1707 913 c 0
 1707 1084 1579 1212 1408 1212 c 0
 1277 1212 1148 1127 1104 1010 c 1
 945 1010 l 1
 900 1127 771 1212 640 1212 c 0
 469 1212 341 1084 341 913 c 0
 341 666 609 423 1015 55 c 1
 1024 47 l 1
 1033 55 l 1
EndSplineSet
Validated: 1
EndChar

StartChar: heart
Encoding: 9829 9829 23
Width: 2048
Flags: HMW
VStem: 171 1707
LayerCount: 2
Fore
SplineSet
1024 -183 m 1
 900 -71 l 2
 461 328 171 590 171 913 c 0
 171 1176 377 1382 640 1382 c 0
 788 1382 931 1313 1024 1204 c 1
 1117 1313 1260 1382 1408 1382 c 0
 1671 1382 1877 1176 1877 913 c 0
 1877 590 1587 327 1148 -72 c 2
 1024 -183 l 1
EndSplineSet
Validated: 1
EndChar

StartChar: musicalnote
Encoding: 9834 9834 24
Width: 2048
Flags: HMW
HStem: -154 768<790 919 790 995> 1126 256<1280 1621 1280 1280>
VStem: 512 768<188 337> 1024 256<591 1126 188 1382>
LayerCount: 2
Fore
SplineSet
1024 1382 m 1xd0
 1621 1382 l 1
 1621 1126 l 1
 1280 1126 l 1xd0
 1280 188 l 1
 1276 188 l 1
 1255 -4 1093 -154 896 -154 c 0
 684 -154 512 18 512 230 c 0xe0
 512 442 684 614 896 614 c 0
 941 614 984 606 1024 591 c 1
 1024 1382 l 1xd0
EndSplineSet
Validated: 1
EndChar

StartChar: uni2690
Encoding: 9872 9872 25
Width: 2048
Flags: HMW
HStem: 273 171 444 171 956 171 1126 171
VStem: 427 171 1536 171
LayerCount: 2
Fore
SplineSet
1195 1126 m 1x2c
 1707 1126 l 1
 1707 273 l 1
 1109 273 l 1x9c
 1024 444 l 1
 597 444 l 1
 597 -154 l 1
 427 -154 l 1
 427 1297 l 1
 1109 1297 l 1x5c
 1195 1126 l 1x2c
1536 444 m 1
 1536 956 l 1
 1109 956 l 1xac
 1024 1126 l 1
 597 1126 l 1
 597 614 l 1
 1109 614 l 1x5c
 1195 444 l 1
 1536 444 l 1
EndSplineSet
Validated: 1
EndChar

StartChar: uni2691
Encoding: 9873 9873 26
Width: 2048
Flags: HMW
VStem: 427 171
LayerCount: 2
Fore
SplineSet
1229 1126 m 1
 1707 1126 l 1
 1707 273 l 1
 1109 273 l 1
 1075 444 l 1
 597 444 l 1
 597 -154 l 1
 427 -154 l 1
 427 1297 l 1
 1195 1297 l 1
 1229 1126 l 1
EndSplineSet
Validated: 1
EndChar

StartChar: uni2693
Encoding: 9875 9875 27
Width: 2048
Flags: HMW
HStem: -239 177 700 171 1297 171
VStem: 768 171 939 171 1109 171
LayerCount: 2
Fore
SplineSet
1451 358 m 1xe8
 1792 614 l 1
 1792 358 l 2
 1792 27 1372 -239 1024 -239 c 0
 676 -239 256 27 256 358 c 2
 256 614 l 1
 597 358 l 1
 465 226 l 1
 547 82 750 -33 939 -61 c 1
 939 700 l 1
 683 700 l 1
 683 870 l 1
 939 870 l 1
 939 971 l 1xe8
 840 1007 768 1101 768 1212 c 0
 768 1353 883 1468 1024 1468 c 0
 1165 1468 1280 1353 1280 1212 c 0xf4
 1280 1101 1208 1007 1109 971 c 1
 1109 870 l 1
 1365 870 l 1
 1365 700 l 1
 1109 700 l 1
 1109 -61 l 1
 1298 -33 1501 82 1583 226 c 1
 1451 358 l 1xe8
1024 1297 m 0
 977 1297 939 1259 939 1212 c 0
 939 1165 977 1126 1024 1126 c 0
 1071 1126 1109 1165 1109 1212 c 0xf4
 1109 1259 1071 1297 1024 1297 c 0
EndSplineSet
Validated: 1
EndChar

StartChar: uni2699
Encoding: 9881 9881 28
Width: 2048
Flags: HMW
HStem: -205 512<850 1108 940 1108 940 1188> 922 512<940 1108>
VStem: 410 307<601 628> 819 409 1331 307<600 628 600 699>
LayerCount: 2
Fore
SplineSet
1633 534 m 1
 1805 399 l 2
 1821 387 1825 366 1815 347 c 2
 1651 64 l 2
 1641 45 1620 38 1601 45 c 2
 1397 127 l 1
 1355 95 1309 67 1259 47 c 1
 1228 -170 l 2
 1225 -190 1208 -205 1188 -205 c 2
 860 -205 l 2
 840 -205 823 -190 819 -170 c 2
 788 47 l 1
 738 67 693 95 650 127 c 1
 446 45 l 2
 427 39 406 45 396 64 c 2
 232 347 l 2
 223 364 227 387 242 399 c 2
 416 534 l 1
 412 560 410 588 410 614 c 0
 410 640 413 669 417 695 c 1
 244 829 l 2
 227 841 224 863 234 881 c 2
 397 1165 l 2
 407 1184 428 1191 447 1184 c 2
 651 1102 l 1
 693 1134 739 1162 789 1182 c 1
 820 1399 l 2
 823 1419 840 1434 860 1434 c 2
 1188 1434 l 2
 1208 1434 1226 1419 1229 1399 c 2
 1260 1182 l 1
 1310 1162 1355 1134 1398 1102 c 1
 1602 1184 l 2
 1621 1190 1642 1184 1652 1165 c 2
 1816 881 l 2
 1825 864 1821 841 1806 829 c 2
 1632 695 l 1
 1636 669 1638 641 1638 614 c 0
 1638 586 1636 560 1633 534 c 1
1024 307 m 0
 1193 307 1331 445 1331 614 c 0
 1331 783 1193 922 1024 922 c 0
 855 922 717 783 717 614 c 0
 717 445 855 307 1024 307 c 0
EndSplineSet
Validated: 1
EndChar

StartChar: uni26A0
Encoding: 9888 9888 29
Width: 2048
Flags: HMW
HStem: -154 256<939 1109 939 1963> 273 171
LayerCount: 2
Fore
SplineSet
85 -154 m 1
 1024 1468 l 1
 1963 -154 l 1
 85 -154 l 1
1109 102 m 1
 1109 273 l 1
 939 273 l 1
 939 102 l 1
 1109 102 l 1
1109 444 m 1
 1109 785 l 1
 939 785 l 1
 939 444 l 1
 1109 444 l 1
EndSplineSet
Validated: 1
EndChar

StartChar: uni26F3
Encoding: 9971 9971 30
Width: 2048
Flags: HMW
HStem: -239 171 -154 256<1629 1699>
VStem: 768 171 1536 256<-61 10>
LayerCount: 2
Fore
SplineSet
1536 -26 m 0x70
 1536 45 1593 102 1664 102 c 0
 1735 102 1792 45 1792 -26 c 0
 1792 -97 1735 -154 1664 -154 c 0
 1593 -154 1536 -97 1536 -26 c 0x70
1451 1133 m 1
 939 872 l 1
 939 100 l 1
 1181 86 1365 16 1365 -68 c 0
 1365 -162 1135 -239 853 -239 c 0
 571 -239 341 -162 341 -68 c 0
 341 -5 444 49 597 79 c 1
 597 -68 l 1
 768 -68 l 1xb0
 768 1468 l 1
 1451 1133 l 1
EndSplineSet
Validated: 1
EndChar

StartChar: uni2702
Encoding: 9986 9986 31
Width: 2048
Flags: HMW
HStem: -239 171<465 559 559 559 465 606> 273 171<465 537 418 559> 572 85<1012 1036 1012 1036> 785 171<465 537> 1297 171<465 512 465 559> 1341 41G<1621 1877 1877 1877>
VStem: 171 171<55 150 55 197 1079 1174> 683 171<55 128 8 150 55 102 1101 1174> 981 85<602 626 603 626>
LayerCount: 2
Fore
SplineSet
823 987 m 1xfb80
 1878 -68 l 1
 1878 -154 l 1
 1622 -154 l 1
 1024 444 l 1
 823 242 l 1
 841 201 854 153 854 102 c 0
 854 -86 700 -240 512 -240 c 0
 324 -240 170 -86 170 102 c 0
 170 290 324 444 512 444 c 0
 563 444 610 432 651 414 c 1
 854 614 l 1
 651 815 l 1
 610 797 563 784 512 784 c 0
 324 784 170 938 170 1126 c 0
 170 1314 324 1468 512 1468 c 0
 700 1468 854 1314 854 1126 c 0
 854 1075 841 1028 823 987 c 1xfb80
512 956 m 0
 606 956 682 1032 682 1126 c 0
 682 1220 606 1296 512 1296 c 0
 418 1296 342 1220 342 1126 c 0
 342 1032 418 956 512 956 c 0
512 -68 m 0
 606 -68 682 8 682 102 c 0
 682 196 606 272 512 272 c 0
 418 272 342 196 342 102 c 0
 342 8 418 -68 512 -68 c 0
1024 571 m 0
 1049 571 1067 589 1067 614 c 0
 1067 639 1049 657 1024 657 c 0
 999 657 981 639 981 614 c 0
 981 589 999 571 1024 571 c 0
1622 1382 m 1xf780
 1878 1382 l 1
 1878 1296 l 1
 1280 700 l 1
 1110 870 l 1
 1622 1382 l 1xf780
EndSplineSet
Validated: 1
EndChar

StartChar: uni274C
Encoding: 10060 10060 32
Width: 2048
Flags: W
LayerCount: 2
Fore
SplineSet
1621 1091 m 1
 1144 614 l 1
 1621 137 l 1
 1501 17 l 1
 1024 494 l 1
 547 17 l 1
 427 137 l 1
 904 614 l 1
 427 1091 l 1
 547 1212 l 1
 1024 735 l 1
 1501 1212 l 1
 1621 1091 l 1
EndSplineSet
Validated: 1
EndChar

StartChar: uni274E
Encoding: 10062 10062 33
Width: 2048
Flags: HMW
HStem: -239 1707
VStem: 171 1707
LayerCount: 2
Fore
SplineSet
1024 1468 m 0
 1496 1468 1877 1086 1877 614 c 0
 1877 142 1496 -239 1024 -239 c 0
 552 -239 171 142 171 614 c 0
 171 1086 552 1468 1024 1468 c 0
1451 308 m 1
 1144 614 l 1
 1451 921 l 1
 1330 1041 l 1
 1024 735 l 1
 718 1041 l 1
 597 921 l 1
 904 614 l 1
 597 308 l 1
 718 188 l 1
 1024 494 l 1
 1330 188 l 1
 1451 308 l 1
EndSplineSet
Validated: 1
EndChar

StartChar: uni29D6
Encoding: 10710 10710 34
Width: 2048
Flags: HMW
HStem: -239 171 1297 171
VStem: 512 171 1365 171
LayerCount: 2
Fore
SplineSet
512 1468 m 1
 1536 1468 l 1
 1536 956 l 1
 1535 956 l 1
 1536 955 l 1
 1195 614 l 1
 1536 273 l 1
 1535 272 l 1
 1536 272 l 1
 1536 -239 l 1
 512 -239 l 1
 512 272 l 1
 513 272 l 1
 512 273 l 1
 853 614 l 1
 512 955 l 1
 513 956 l 1
 512 956 l 1
 512 1468 l 1
1365 230 m 1
 1024 572 l 1
 683 230 l 1
 683 -68 l 1
 1365 -68 l 1
 1365 230 l 1
1024 657 m 1
 1365 998 l 1
 1365 1297 l 1
 683 1297 l 1
 683 998 l 1
 1024 657 l 1
EndSplineSet
Validated: 1
EndChar

StartChar: uni29D7
Encoding: 10711 10711 35
Width: 2048
Flags: HMW
VStem: 512 1024<-239 272 -239 272 -239 273 -239 955 956 1468>
LayerCount: 2
Fore
SplineSet
512 1468 m 1
 1536 1468 l 1
 1536 956 l 1
 1535 956 l 1
 1536 955 l 1
 1195 614 l 1
 1536 273 l 1
 1535 272 l 1
 1536 272 l 1
 1536 -239 l 1
 512 -239 l 1
 512 272 l 1
 513 272 l 1
 512 273 l 1
 853 614 l 1
 512 955 l 1
 513 956 l 1
 512 956 l 1
 512 1468 l 1
EndSplineSet
Validated: 1
EndChar

StartChar: uni33BC
Encoding: 13244 13244 36
Width: 2048
Flags: HMW
HStem: 614 256<1195 1365 1195 1365 1109 1365> 1126 341
VStem: 1365 512
LayerCount: 2
Fore
SplineSet
1877 614 m 0
 1877 171 1540 -192 1109 -235 c 1
 1109 358 l 1
 1365 358 l 1
 1365 614 l 1
 1109 614 l 1
 1109 785 l 2
 1109 832 1148 870 1195 870 c 2
 1365 870 l 1
 1365 1126 l 1
 1152 1126 l 2
 987 1126 853 993 853 828 c 2
 853 614 l 1
 683 614 l 1
 683 358 l 1
 853 358 l 1
 853 -222 l 1
 464 -143 171 201 171 614 c 0
 171 1085 553 1468 1024 1468 c 0
 1495 1468 1877 1085 1877 614 c 0
EndSplineSet
Validated: 1
EndChar

StartChar: uni33CC
Encoding: 13260 13260 37
Width: 2048
Flags: HMW
HStem: -154 169 818 68 1213 169
VStem: 256 185 256 222 731 114 768 1024 1098 273 1631 161
LayerCount: 2
Fore
SplineSet
1653 1382 m 2xf080
 1730 1382 1792 1320 1792 1243 c 2
 1792 -15 l 2
 1792 -92 1730 -154 1653 -154 c 2
 395 -154 l 2
 318 -154 256 -92 256 -15 c 2
 256 1243 l 2
 256 1320 318 1382 395 1382 c 2
 1653 1382 l 2xf080
731 56 m 2xec
 731 778 l 2
 731 800 713 818 691 818 c 2
 519 818 l 2
 497 818 478 800 478 778 c 2
 478 56 l 2
 478 34 497 16 519 16 c 2
 691 16 l 2
 713 16 731 34 731 56 c 2xec
605 886 m 0
 695 886 768 960 768 1050 c 0
 768 1140 695 1213 605 1213 c 0
 515 1213 441 1140 441 1050 c 0xf2
 441 960 515 886 605 886 c 0
1631 53 m 2xe580
 1631 402 l 2
 1631 404 1631 405 1631 407 c 0
 1631 560 1629 830 1337 830 c 0
 1203 830 1140 781 1098 718 c 1
 1098 781 l 2
 1098 802 1082 818 1061 818 c 2
 882 818 l 2
 861 818 845 802 845 781 c 2
 845 53 l 2
 845 32 861 16 882 16 c 2
 1061 16 l 2
 1082 16 1098 32 1098 53 c 2
 1098 443 l 2
 1103 495 1126 613 1240 613 c 0
 1362 613 1372 495 1372 426 c 0
 1372 412 1372 399 1372 391 c 2
 1372 53 l 2
 1372 32 1388 16 1409 16 c 2
 1594 16 l 2
 1615 16 1631 32 1631 53 c 2xe580
EndSplineSet
Validated: 1
EndChar

StartChar: u1F310
Encoding: 127760 127760 38
Width: 2048
Flags: HMW
HStem: 273 171<433 433 433 652 364 685 861 861 861 1187 1396 1615> 785 171<433 652 364 685 433 824 861 1187 1396 1396 1396 1615>
VStem: 171 171<585 644 585 850> 640 171<585 643> 1237 171<585 643> 1707 171<585 644>
LayerCount: 2
Fore
SplineSet
1023 1468 m 0
 1495 1468 1877 1085 1877 614 c 0
 1877 143 1495 -239 1023 -239 c 0
 552 -239 171 143 171 614 c 0
 171 1085 552 1468 1023 1468 c 0
1615 956 m 1
 1533 1097 1402 1206 1245 1260 c 1
 1296 1165 1336 1063 1363 956 c 1
 1615 956 l 1
1024 1294 m 1
 953 1192 898 1078 861 956 c 1
 1187 956 l 1
 1150 1078 1095 1192 1024 1294 c 1
364 444 m 1
 652 444 l 1
 645 500 640 556 640 614 c 0
 640 672 645 729 652 785 c 1
 364 785 l 1
 350 730 341 673 341 614 c 0
 341 555 350 499 364 444 c 1
433 273 m 1
 515 131 646 23 803 -31 c 1
 752 64 712 166 685 273 c 1
 433 273 l 1
685 956 m 1
 712 1063 752 1165 803 1260 c 1
 646 1206 515 1098 433 956 c 1
 685 956 l 1
1024 -65 m 1
 1095 37 1150 151 1187 273 c 1
 861 273 l 1
 898 151 953 37 1024 -65 c 1
1224 444 m 1
 1232 500 1237 556 1237 614 c 0
 1237 672 1232 730 1224 785 c 1
 824 785 l 1
 816 730 811 672 811 614 c 0
 811 556 816 500 824 444 c 1
 1224 444 l 1
1245 -31 m 1
 1402 23 1533 132 1615 273 c 1
 1363 273 l 1
 1336 166 1296 64 1245 -31 c 1
1396 444 m 1
 1684 444 l 1
 1698 499 1707 555 1707 614 c 0
 1707 673 1698 730 1684 785 c 1
 1396 785 l 1
 1403 729 1408 672 1408 614 c 0
 1408 556 1403 500 1396 444 c 1
EndSplineSet
Validated: 1
EndChar

StartChar: u1F39E
Encoding: 127902 127902 39
Width: 2048
Flags: HMW
HStem: 17 171 358 171 700 171 1041 171
VStem: 341 171 683 683 1536 171
CounterMasks: 1 0e
LayerCount: 2
Fore
SplineSet
1536 1382 m 1
 1707 1382 l 1
 1707 -154 l 1
 1536 -154 l 1
 1536 17 l 1
 1365 17 l 1
 1365 -154 l 1
 683 -154 l 1
 683 17 l 1
 512 17 l 1
 512 -154 l 1
 341 -154 l 1
 341 1382 l 1
 512 1382 l 1
 512 1212 l 1
 683 1212 l 1
 683 1382 l 1
 1365 1382 l 1
 1365 1212 l 1
 1536 1212 l 1
 1536 1382 l 1
683 188 m 1
 683 358 l 1
 512 358 l 1
 512 188 l 1
 683 188 l 1
683 529 m 1
 683 700 l 1
 512 700 l 1
 512 529 l 1
 683 529 l 1
683 870 m 1
 683 1041 l 1
 512 1041 l 1
 512 870 l 1
 683 870 l 1
1536 188 m 1
 1536 358 l 1
 1365 358 l 1
 1365 188 l 1
 1536 188 l 1
1536 529 m 1
 1536 700 l 1
 1365 700 l 1
 1365 529 l 1
 1536 529 l 1
1536 870 m 1
 1536 1041 l 1
 1365 1041 l 1
 1365 870 l 1
 1536 870 l 1
EndSplineSet
Validated: 1
EndChar

StartChar: u1F3A4
Encoding: 127908 127908 40
Width: 2048
Flags: HMW
HStem: 126 138 444 1024
VStem: 427 145 768 511 939 171 1476 145
LayerCount: 2
Fore
SplineSet
1024 444 m 0xf4
 882 444 768 558 768 700 c 2
 768 1212 l 2
 768 1354 882 1468 1024 1468 c 0
 1166 1468 1280 1354 1280 1212 c 2
 1279 700 l 2
 1279 558 1166 444 1024 444 c 0xf4
1476 700 m 1
 1621 700 l 1
 1621 408 1389 167 1109 126 c 1
 1109 -154 l 1
 939 -154 l 1
 939 126 l 1xec
 659 168 427 409 427 700 c 1
 572 700 l 1
 572 444 788 265 1024 265 c 0
 1260 265 1476 444 1476 700 c 1
EndSplineSet
Validated: 1
EndChar

StartChar: u1F3D6
Encoding: 127958 127958 41
Width: 2048
Flags: HMW
HStem: -92 43G 885 43G 1177 205
VStem: 256 205
LayerCount: 2
Fore
SplineSet
1120 395 m 1
 1243 518 l 1
 1792 -32 l 1
 1670 -154 l 1
 1120 395 l 1
1487 885 m 1
 1295 1077 1047 1177 799 1177 c 0
 702 1177 604 1162 510 1131 c 1
 678 1299 899 1382 1119 1382 c 0
 1340 1382 1562 1298 1731 1129 c 1
 1487 885 l 1
508 1128 m 1
 477 1034 461 936 461 839 c 0
 461 591 561 344 753 152 c 1
 509 -92 l 1
 340 77 256 298 256 519 c 0
 256 739 340 960 508 1128 c 1
509 1130 m 1
 535 1133 561 1135 588 1135 c 0
 831 1135 1123 1004 1364 763 c 1
 876 274 l 1
 635 515 504 807 504 1050 c 0
 504 1077 506 1103 509 1129 c 1
 509 1130 l 1
EndSplineSet
Validated: 1
EndChar

StartChar: u1F3F7
Encoding: 127991 127991 42
Width: 2048
Flags: HMW
HStem: 18 1193<380 427>
LayerCount: 2
Fore
SplineSet
1504 1140 m 2
 1877 614 l 1
 1504 89 l 2
 1473 45 1422 17 1365 17 c 2
 427 18 l 2
 333 18 256 94 256 188 c 2
 256 1041 l 2
 256 1135 333 1211 427 1211 c 2
 1365 1212 l 2
 1422 1212 1473 1184 1504 1140 c 2
EndSplineSet
Validated: 1
EndChar

StartChar: u1F44D
Encoding: 128077 128077 43
Width: 2048
Flags: HMW
VStem: 85 341
LayerCount: 2
Fore
SplineSet
85 -154 m 1
 85 870 l 1
 427 870 l 1
 427 -154 l 1
 85 -154 l 1
1963 785 m 2
 1963 614 l 2
 1963 592 1959 572 1951 552 c 2
 1693 -49 l 2
 1667 -110 1607 -154 1536 -154 c 2
 768 -154 l 2
 674 -154 597 -77 597 17 c 2
 597 870 l 2
 597 917 616 960 648 991 c 2
 1209 1553 l 1
 1300 1463 l 2
 1323 1440 1337 1408 1337 1373 c 2
 1335 1346 l 1
 1254 956 l 1
 1792 956 l 2
 1886 956 1963 879 1963 785 c 2
EndSplineSet
Validated: 1
EndChar

StartChar: u1F44E
Encoding: 128078 128078 44
Width: 2048
Flags: HMW
HStem: 1341 41G<512 1280 1280 1327 1621 1963 1963 1963>
VStem: 1621 341
LayerCount: 2
Fore
SplineSet
1280 1382 m 2
 1374 1382 1451 1306 1451 1212 c 2
 1451 358 l 2
 1451 311 1432 269 1401 238 c 2
 839 -324 l 1
 748 -235 l 2
 725 -212 711 -179 711 -144 c 2
 713 -117 l 1
 794 273 l 1
 256 273 l 2
 162 273 85 350 85 444 c 2
 85 614 l 2
 85 636 89 657 97 677 c 2
 355 1278 l 2
 381 1339 441 1382 512 1382 c 2
 1280 1382 l 2
1621 1382 m 1
 1963 1382 l 1
 1963 358 l 1
 1621 358 l 1
 1621 1382 l 1
EndSplineSet
Validated: 1
EndChar

StartChar: u1F4A1
Encoding: 128161 128161 45
Width: 2048
Flags: HMW
HStem: -240 256<992 1056> -154 170<682 854 854 877 1171 1194 1171 1171> 102 86<854 1194 854 1194> 272 172<981 1067 981 1194 854 1067>
VStem: 682 172 1194 172
LayerCount: 2
Fore
SplineSet
1024 1382 m 0x7c
 1354 1382 1622 1116 1622 784 c 0
 1622 608 1544 449 1419 338 c 0
 1384 307 1366 262 1366 215 c 2
 1366 16 l 2
 1366 -78 1288 -154 1194 -154 c 2
 1171 -154 l 1x7c
 1142 -205 1087 -240 1024 -240 c 0xbc
 961 -240 908 -205 877 -154 c 1
 854 -154 l 2
 760 -154 682 -78 682 16 c 2
 682 215 l 2
 682 262 664 307 627 340 c 0
 503 448 426 607 426 785 c 0
 426 822 429 860 436 899 c 0
 481 1135 669 1325 905 1370 c 0
 944 1378 985 1382 1024 1382 c 0x7c
1194 16 m 1
 1194 102 l 1
 854 102 l 1
 854 16 l 1
 1194 16 l 1
1194 188 m 1
 1194 272 l 1
 854 272 l 1
 854 188 l 1
 1194 188 l 1
1067 666 m 1
 1223 819 l 1
 1163 881 l 1
 1024 741 l 1
 885 881 l 1
 825 819 l 1
 981 666 l 1
 981 444 l 1
 1067 444 l 1
 1067 666 l 1
EndSplineSet
Validated: 1
EndChar

StartChar: u1F4CB
Encoding: 128203 128203 46
Width: 2048
Flags: HMW
HStem: -239 171 1041 256 1297 171 1468 171
VStem: 256 171 1621 171
LayerCount: 2
Fore
SplineSet
1621 1468 m 2xac
 1715 1468 1792 1391 1792 1297 c 2
 1792 -68 l 2
 1792 -162 1715 -239 1621 -239 c 2
 427 -239 l 2
 333 -239 256 -162 256 -68 c 2
 256 1297 l 2
 256 1391 333 1468 427 1468 c 2xac
 783 1468 l 1
 819 1567 913 1638 1024 1638 c 0
 1135 1638 1229 1567 1265 1468 c 1x9c
 1621 1468 l 2xac
1024 1468 m 0xdc
 977 1468 939 1429 939 1382 c 0
 939 1335 977 1297 1024 1297 c 0
 1071 1297 1109 1335 1109 1382 c 0
 1109 1429 1071 1468 1024 1468 c 0xdc
1621 -68 m 1
 1621 1297 l 1
 1451 1297 l 1xac
 1451 1041 l 1
 597 1041 l 1xcc
 597 1297 l 1
 427 1297 l 1xac
 427 -68 l 1
 1621 -68 l 1
EndSplineSet
Validated: 1
EndChar

StartChar: u1F4D1
Encoding: 128209 128209 47
Width: 2048
Flags: HMW
HStem: 1382 171
VStem: 256 1195 1621 171
LayerCount: 2
Fore
SplineSet
1621 102 m 1
 1621 1212 l 2
 1621 1306 1545 1382 1451 1382 c 2
 597 1382 l 1
 597 1476 673 1553 767 1553 c 2
 1621 1553 l 2
 1715 1553 1792 1476 1792 1382 c 2
 1792 17 l 1
 1621 102 l 1
1280 1212 m 2
 1374 1212 1451 1135 1451 1041 c 2
 1451 -324 l 1
 853 -68 l 1
 256 -324 l 1
 256 1041 l 2
 256 1135 333 1212 427 1212 c 2
 1280 1212 l 2
EndSplineSet
Validated: 1
EndChar

StartChar: u1F4DE
Encoding: 128222 128222 48
Width: 2048
Flags: HMW
HStem: -154 468 1341 41G
VStem: 256 469
LayerCount: 2
Fore
SplineSet
565 718 m 1
 688 477 886 279 1127 155 c 1
 1315 343 l 2
 1331 359 1353 368 1375 368 c 0
 1384 368 1393 367 1402 364 c 0
 1498 332 1601 315 1707 315 c 0
 1754 315 1792 277 1792 230 c 2
 1792 -68 l 2
 1792 -115 1754 -154 1707 -154 c 0
 906 -154 256 496 256 1297 c 0
 256 1344 294 1382 341 1382 c 2
 640 1382 l 2
 687 1382 725 1344 725 1297 c 0
 725 1190 742 1088 774 992 c 0
 777 983 778 975 778 966 c 0
 778 944 770 922 753 905 c 2
 565 718 l 1
EndSplineSet
Validated: 1
EndChar

StartChar: u1F4E7
Encoding: 128231 128231 49
Width: 2048
Flags: HMW
HStem: -68 43G
VStem: 172 170 1707 171
LayerCount: 2
Fore
SplineSet
1707 1297 m 2
 1801 1297 1877 1220 1877 1126 c 2
 1877 102 l 2
 1877 8 1801 -68 1707 -68 c 2
 341 -68 l 2
 247 -68 171 8 171 102 c 2
 172 1126 l 2
 172 1220 247 1297 341 1297 c 2
 1707 1297 l 2
1707 956 m 1
 1707 1126 l 1
 1024 700 l 1
 341 1126 l 1
 341 956 l 1
 1024 529 l 1
 1707 956 l 1
EndSplineSet
Validated: 1
EndChar

StartChar: u1F4F1
Encoding: 128241 128241 50
Width: 2048
Flags: HMW
HStem: -324 341 1212 341
VStem: 427 171 1451 171
LayerCount: 2
Fore
SplineSet
1451 1552 m 2
 1545 1552 1621 1476 1621 1382 c 2
 1621 -154 l 2
 1621 -248 1545 -324 1451 -324 c 2
 597 -324 l 2
 503 -324 427 -248 427 -154 c 2
 427 1382 l 2
 427 1476 503 1553 597 1553 c 2
 1451 1552 l 2
1451 17 m 1
 1451 1212 l 1
 597 1212 l 1
 597 17 l 1
 1451 17 l 1
EndSplineSet
Validated: 1
EndChar

StartChar: u1F4F5
Encoding: 128245 128245 51
Width: 2048
Flags: HMW
HStem: -324 427 1126 427 1358 41G
VStem: 427 171 1451 171
LayerCount: 2
Fore
SplineSet
753 1126 m 1x98
 438 1442 l 1
 463 1506 524 1553 597 1553 c 2
 1451 1552 l 2
 1545 1552 1621 1476 1621 1382 c 2
 1621 259 l 1
 1451 429 l 1
 1451 1126 l 1
 753 1126 l 1x98
1688 -291 m 1
 1610 -213 l 1
 1585 -277 1524 -324 1451 -324 c 2
 597 -324 l 2
 503 -324 427 -248 427 -154 c 2
 427 970 l 1
 119 1278 l 1
 239 1399 l 1xb8
 1807 -170 l 1
 1688 -291 l 1
1295 102 m 1
 597 800 l 1
 597 102 l 1
 1295 102 l 1
EndSplineSet
Validated: 1
EndChar

StartChar: u1F4F9
Encoding: 128249 128249 52
Width: 2048
Flags: HMW
HStem: 102 1024<318 1365 341 1365>
LayerCount: 2
Fore
SplineSet
1451 742 m 1
 1792 1084 l 1
 1792 145 l 1
 1451 486 l 1
 1451 188 l 2
 1451 141 1412 102 1365 102 c 2
 341 102 l 2
 294 102 256 141 256 188 c 2
 256 1041 l 2
 256 1088 294 1126 341 1126 c 2
 1365 1126 l 2
 1412 1126 1451 1088 1451 1041 c 2
 1451 742 l 1
EndSplineSet
Validated: 1
EndChar

StartChar: u1F4FA
Encoding: 128250 128250 53
Width: 2048
Flags: HMW
HStem: -154 341 17 171 1212 171
VStem: 85 171 1792 170
LayerCount: 2
Fore
SplineSet
1792 1382 m 2x78
 1886 1382 1963 1306 1963 1212 c 2
 1962 188 l 2
 1962 94 1886 17 1792 17 c 2
 1365 17 l 1x78
 1365 -154 l 1
 683 -154 l 1xb8
 683 17 l 1
 256 17 l 2
 162 17 85 94 85 188 c 2
 85 1212 l 2
 85 1306 162 1382 256 1382 c 2
 1792 1382 l 2x78
1792 188 m 1
 1792 1212 l 1
 256 1212 l 1
 256 188 l 1
 1792 188 l 1
EndSplineSet
Validated: 1
EndChar

StartChar: u1F4FB
Encoding: 128251 128251 54
Width: 2048
Flags: HMW
HStem: -239 171 444 171 956 171
VStem: 171 171 853 1024 1365 171 1707 171
LayerCount: 2
Fore
SplineSet
276 1114 m 2xf2
 1355 1553 l 1
 1413 1411 l 1
 708 1126 l 1
 1707 1126 l 2
 1802 1126 1877 1051 1877 956 c 2
 1877 -68 l 2
 1877 -162 1802 -239 1707 -239 c 2
 341 -239 l 2
 246 -239 171 -162 171 -68 c 2
 171 956 l 2
 171 1027 214 1090 276 1114 c 2xf2
597 -68 m 0
 739 -68 853 46 853 188 c 0xf8
 853 330 739 444 597 444 c 0
 455 444 341 330 341 188 c 0
 341 46 455 -68 597 -68 c 0
1707 614 m 1xf6
 1707 956 l 1
 341 956 l 1
 341 614 l 1
 1365 614 l 1
 1365 785 l 1
 1536 785 l 1
 1536 614 l 1
 1707 614 l 1xf6
EndSplineSet
Validated: 1
EndChar

StartChar: u1F507
Encoding: 128263 128263 55
Width: 2048
Flags: HMW
HStem: -68 43G 358 512<256 597 256 660> 1187 176 1341 41G<364 364>
VStem: 1621 171
LayerCount: 2
Fore
SplineSet
1408 614 m 0xc8
 1408 595 1407 578 1404 561 c 1
 1195 770 l 1
 1195 958 l 1
 1321 895 1408 765 1408 614 c 0xc8
1621 614 m 0
 1621 885 1442 1114 1195 1187 c 1
 1195 1363 l 1xe8
 1537 1285 1792 979 1792 614 c 0
 1792 486 1760 366 1704 260 c 1
 1575 389 l 1
 1604 459 1621 534 1621 614 c 0
364 1382 m 1xd8
 1024 723 l 1
 1792 -45 l 1
 1684 -154 l 1
 1510 21 l 1
 1420 -52 1313 -107 1195 -133 c 1
 1195 43 l 1
 1266 64 1330 99 1387 143 c 1
 1024 506 l 1
 1024 -68 l 1
 597 358 l 1
 256 358 l 1
 256 870 l 1
 660 870 l 1
 256 1274 l 1
 364 1382 l 1xd8
1024 1297 m 1
 1024 940 l 1
 846 1119 l 1
 1024 1297 l 1
EndSplineSet
Validated: 1
EndChar

StartChar: u1F508
Encoding: 128264 128264 56
Width: 2048
Flags: HMW
HStem: -238 170 102 512<953 1095> 785 171 1297 171
VStem: 427 171 427 427 768 512<288 429> 1195 427 1451 171
LayerCount: 2
Fore
SplineSet
1451 1468 m 2xf880
 1545 1468 1621 1391 1621 1297 c 2
 1621 -68 l 2
 1621 -162 1545 -239 1451 -239 c 2
 597 -238 l 2
 503 -238 427 -162 427 -68 c 2
 427 1297 l 2
 427 1391 503 1468 597 1468 c 2
 1451 1468 l 2xf880
1024 1297 m 0
 929 1297 853 1220 853 1126 c 0
 853 1032 929 956 1024 956 c 0
 1118 956 1195 1032 1195 1126 c 0xf5
 1195 1220 1118 1297 1024 1297 c 0
1024 -68 m 0
 1260 -68 1451 122 1451 358 c 0
 1451 594 1260 785 1024 785 c 0
 788 785 597 594 597 358 c 0xf880
 597 122 788 -68 1024 -68 c 0
1024 614 m 0
 1166 614 1280 500 1280 358 c 0
 1280 216 1166 102 1024 102 c 0
 882 102 768 216 768 358 c 0xf2
 768 500 882 614 1024 614 c 0
EndSplineSet
Validated: 1
EndChar

StartChar: u1F50D
Encoding: 128269 128269 57
Width: 2048
Flags: HMW
HStem: 273 171 1212 171
VStem: 256 171 1195 171
LayerCount: 2
Fore
SplineSet
1323 444 m 1
 1748 17 l 1
 1621 -110 l 1
 1195 316 l 1
 1195 383 l 1
 1172 407 l 1
 1075 323 948 273 811 273 c 0
 505 273 256 522 256 828 c 0
 256 1134 505 1382 811 1382 c 0
 1117 1382 1365 1134 1365 828 c 0
 1365 691 1315 564 1231 467 c 1
 1255 444 l 1
 1323 444 l 1
811 444 m 0
 1023 444 1195 616 1195 828 c 0
 1195 1040 1023 1212 811 1212 c 0
 599 1212 427 1040 427 828 c 0
 427 616 599 444 811 444 c 0
EndSplineSet
Validated: 1
EndChar

StartChar: u1F512
Encoding: 128274 128274 58
Width: 2048
Flags: HMW
HStem: -239 427 529 427 1391 162
VStem: 341 512 597 162 1195 512 1289 162
LayerCount: 2
Fore
SplineSet
1536 956 m 2xea
 1630 956 1707 879 1707 785 c 2
 1707 -68 l 2
 1707 -162 1630 -239 1536 -239 c 2
 512 -239 l 2
 418 -239 341 -162 341 -68 c 2
 341 785 l 2xf4
 341 879 418 956 512 956 c 2
 597 956 l 1
 597 1126 l 2
 597 1362 788 1553 1024 1553 c 0
 1260 1553 1451 1362 1451 1126 c 2
 1451 956 l 1
 1536 956 l 2xea
1024 188 m 0
 1118 188 1195 264 1195 358 c 0
 1195 452 1118 529 1024 529 c 0
 930 529 853 452 853 358 c 0
 853 264 930 188 1024 188 c 0
1289 956 m 1xea
 1289 1126 l 2
 1289 1272 1170 1391 1024 1391 c 0
 878 1391 759 1272 759 1126 c 2
 759 956 l 1
 1289 956 l 1xea
EndSplineSet
Validated: 1
EndChar

StartChar: u1F513
Encoding: 128275 128275 59
Width: 2048
Flags: HMW
HStem: -239 171 188 341 785 171 1391 162
VStem: 341 171 597 162 853 341 1289 162 1536 171
LayerCount: 2
Fore
SplineSet
1024 188 m 0
 930 188 853 264 853 358 c 0
 853 452 930 529 1024 529 c 0
 1118 529 1195 452 1195 358 c 0
 1195 264 1118 188 1024 188 c 0
1536 956 m 2
 1630 956 1707 879 1707 785 c 2
 1707 -68 l 2
 1707 -162 1630 -239 1536 -239 c 2
 512 -239 l 2
 418 -239 341 -162 341 -68 c 2
 341 785 l 2
 341 879 418 956 512 956 c 2
 1289 956 l 1
 1289 1126 l 2
 1289 1272 1170 1391 1024 1391 c 0
 878 1391 759 1272 759 1126 c 1
 597 1126 l 1
 597 1362 788 1553 1024 1553 c 0
 1260 1553 1451 1362 1451 1126 c 2
 1451 956 l 1
 1536 956 l 2
1536 -68 m 1
 1536 785 l 1
 512 785 l 1
 512 -68 l 1
 1536 -68 l 1
EndSplineSet
Validated: 1
EndChar

StartChar: u1F516
Encoding: 128278 128278 60
Width: 2048
Flags: HMW
VStem: 428 1194
LayerCount: 2
Fore
SplineSet
1451 1382 m 2
 1545 1382 1621 1306 1621 1212 c 2
 1621 -154 l 1
 1024 102 l 1
 427 -154 l 1
 428 1212 l 2
 428 1306 503 1382 597 1382 c 2
 1451 1382 l 2
EndSplineSet
Validated: 1
EndChar

StartChar: u1F517
Encoding: 128279 128279 61
Width: 2048
Flags: HMW
HStem: 188 162 529 171 879 162
VStem: 171 162 1715 162
CounterMasks: 1 e0
LayerCount: 2
Fore
SplineSet
333 614 m 0
 333 468 451 350 597 350 c 2
 939 350 l 1
 939 188 l 1
 597 188 l 2
 361 188 171 378 171 614 c 0
 171 850 361 1041 597 1041 c 2
 939 1041 l 1
 939 879 l 1
 597 879 l 2
 451 879 333 760 333 614 c 0
683 529 m 1
 683 700 l 1
 1365 700 l 1
 1365 529 l 1
 683 529 l 1
1451 1041 m 2
 1687 1041 1877 850 1877 614 c 0
 1877 378 1687 188 1451 188 c 2
 1109 188 l 1
 1109 350 l 1
 1451 350 l 2
 1597 350 1715 468 1715 614 c 0
 1715 760 1597 879 1451 879 c 2
 1109 879 l 1
 1109 1041 l 1
 1451 1041 l 2
EndSplineSet
Validated: 1
EndChar

StartChar: u1F518
Encoding: 128280 128280 62
Width: 2048
Flags: HMW
HStem: -239 171 188 853 1297 171
VStem: 171 171 597 853 1707 171
CounterMasks: 1 fc
LayerCount: 2
Fore
SplineSet
1024 1041 m 0
 1260 1041 1451 850 1451 614 c 0
 1451 378 1260 188 1024 188 c 0
 788 188 597 378 597 614 c 0
 597 850 788 1041 1024 1041 c 0
1024 1468 m 0
 1495 1468 1877 1085 1877 614 c 0
 1877 143 1495 -239 1024 -239 c 0
 553 -239 171 143 171 614 c 0
 171 1085 553 1468 1024 1468 c 0
1024 -68 m 0
 1401 -68 1707 237 1707 614 c 0
 1707 991 1401 1297 1024 1297 c 0
 647 1297 341 991 341 614 c 0
 341 237 647 -68 1024 -68 c 0
EndSplineSet
Validated: 1
EndChar

StartChar: u1F527
Encoding: 128295 128295 63
Width: 2048
Flags: W
LayerCount: 2
Fore
SplineSet
1937 17 m 2
 1953 5 1962 -15 1962 -36 c 0
 1962 -59 1952 -84 1929 -102 c 2
 1732 -299 l 2
 1715 -316 1694 -324 1673 -324 c 0
 1652 -324 1630 -316 1613 -299 c 2
 836 478 l 1
 773 453 707 441 640 441 c 0
 499 441 357 496 247 606 c 0
 138 715 82 859 82 1002 c 0
 82 1083 100 1163 137 1237 c 1
 512 870 l 1
 768 1126 l 1
 401 1493 l 1
 475 1527 556 1545 637 1545 c 0
 780 1545 924 1491 1033 1382 c 0
 1143 1272 1198 1131 1198 990 c 0
 1198 923 1186 857 1161 794 c 1
 1937 17 l 2
EndSplineSet
Validated: 1
EndChar

StartChar: u1F56E
Encoding: 128366 128366 64
Width: 2048
Flags: HMW
HStem: 1297 171
VStem: 341 171 939 768
LayerCount: 2
Fore
SplineSet
1536 1468 m 2
 1630 1468 1707 1391 1707 1297 c 2
 1707 -68 l 2
 1707 -162 1630 -239 1536 -239 c 2
 512 -239 l 2
 418 -239 341 -162 341 -68 c 2
 341 1297 l 2
 341 1391 418 1468 512 1468 c 2
 1536 1468 l 2
512 1297 m 1
 512 614 l 1
 725 742 l 1
 939 614 l 1
 939 1297 l 1
 512 1297 l 1
EndSplineSet
Validated: 1
EndChar

StartChar: u1F5A8
Encoding: 128424 128424 65
Width: 2048
Flags: HMW
HStem: -154 171 188 427 444 512 785 171 1041 341
VStem: 512 171 1365 171 1707 171
LayerCount: 2
Fore
SplineSet
1621 956 m 2xdf
 1763 956 1877 842 1877 700 c 2
 1877 188 l 1
 1536 188 l 1
 1536 -154 l 1
 512 -154 l 1
 512 188 l 1
 171 188 l 1
 171 700 l 2
 171 842 285 956 427 956 c 2
 1621 956 l 2xdf
1365 17 m 1
 1365 444 l 1
 683 444 l 1xaf
 683 17 l 1
 1365 17 l 1
1621 614 m 0xdf
 1668 614 1707 653 1707 700 c 0
 1707 747 1668 785 1621 785 c 0
 1574 785 1536 747 1536 700 c 0
 1536 653 1574 614 1621 614 c 0xdf
1536 1382 m 1
 1536 1041 l 1
 512 1041 l 1
 512 1382 l 1
 1536 1382 l 1
EndSplineSet
Validated: 1
EndChar

StartChar: u1F5C0
Encoding: 128448 128448 66
Width: 2048
Flags: HMW
HStem: -68 43G
LayerCount: 2
Fore
SplineSet
853 1297 m 1
 1024 1126 l 1
 1707 1126 l 2
 1801 1126 1877 1050 1877 956 c 2
 1877 102 l 2
 1877 8 1801 -68 1707 -68 c 2
 341 -68 l 2
 247 -68 171 8 171 102 c 2
 172 1126 l 2
 172 1220 247 1297 341 1297 c 2
 853 1297 l 1
EndSplineSet
Validated: 1
EndChar

StartChar: u1F5C1
Encoding: 128449 128449 67
Width: 2048
Flags: HMW
HStem: -68 171 956 171 956 341
VStem: 171 171 1707 171
LayerCount: 2
Fore
SplineSet
1707 1126 m 2xd8
 1801 1126 1877 1050 1877 956 c 2
 1877 102 l 2
 1877 8 1801 -68 1707 -68 c 2
 341 -68 l 2
 247 -68 171 8 171 102 c 2
 172 1126 l 2xd8
 172 1220 247 1297 341 1297 c 2
 853 1297 l 1xb8
 1024 1126 l 1
 1707 1126 l 2xd8
1707 102 m 1
 1707 956 l 1xd8
 341 956 l 1xb8
 341 102 l 1
 1707 102 l 1
EndSplineSet
Validated: 1
EndChar

StartChar: u1F6BD
Encoding: 128701 128701 68
Width: 2048
Flags: HMW
HStem: 1126 341
VStem: 341 597 469 341 1237 341 1280 256<-239 273>
LayerCount: 2
Fore
SplineSet
469 -239 m 1xa0
 469 401 l 1xa0
 341 401 l 1
 341 870 l 2
 341 964 418 1041 512 1041 c 2
 768 1041 l 2
 862 1041 939 964 939 870 c 2
 939 401 l 1xc0
 811 401 l 1
 811 -239 l 1
 469 -239 l 1xa0
1536 -239 m 1x88
 1280 -239 l 1
 1280 273 l 1
 1024 273 l 1
 1241 924 l 2
 1264 994 1330 1041 1403 1041 c 2
 1413 1041 l 2
 1486 1041 1551 994 1575 924 c 2
 1792 273 l 1
 1536 273 l 1
 1536 -239 l 1x88
640 1126 m 0
 545 1126 469 1202 469 1297 c 0
 469 1392 545 1468 640 1468 c 0
 735 1468 811 1392 811 1297 c 0xa0
 811 1202 735 1126 640 1126 c 0
1408 1126 m 0
 1313 1126 1237 1202 1237 1297 c 0
 1237 1392 1313 1468 1408 1468 c 0
 1503 1468 1579 1392 1579 1297 c 0x90
 1579 1202 1503 1126 1408 1126 c 0
EndSplineSet
Validated: 1
EndChar

StartChar: u1F6E0
Encoding: 128736 128736 69
Width: 2048
Flags: HMW
HStem: 1341 41G<1411 1518>
LayerCount: 2
Fore
SplineSet
1688 -168 m 1
 1176 344 l 1
 1357 525 l 1
 1869 13 l 1
 1688 -168 l 1
1493 785 m 0
 1458 785 1425 792 1394 803 c 1
 423 -167 l 1
 242 14 l 1
 875 646 l 1
 723 798 l 1
 662 737 l 1
 542 858 l 1
 542 616 l 1
 481 556 l 1
 179 858 l 1
 240 918 l 1
 480 918 l 1
 360 1039 l 1
 662 1341 l 2
 712 1391 778 1415 843 1415 c 0
 908 1415 974 1391 1024 1341 c 1
 843 1160 l 1
 963 1039 l 1
 903 979 l 1
 1055 827 l 1
 1213 985 l 1
 1202 1016 1195 1049 1195 1084 c 0
 1195 1249 1328 1382 1493 1382 c 0
 1542 1382 1589 1368 1630 1347 c 1
 1399 1117 l 1
 1527 990 l 1
 1757 1220 l 1
 1778 1179 1792 1133 1792 1084 c 0
 1792 919 1658 785 1493 785 c 0
EndSplineSet
Validated: 1
EndChar

StartChar: u1F6EB
Encoding: 128747 128747 70
Width: 2048
Flags: HMW
HStem: -154 171
LayerCount: 2
Fore
SplineSet
213 17 m 1
 1835 17 l 1
 1835 -154 l 1
 213 -154 l 1
 213 17 l 1
1883 816 m 0
 1886 805 1888 794 1888 783 c 0
 1888 726 1850 674 1792 658 c 0
 986 442 378 280 378 280 c 1
 157 663 l 1
 281 696 l 1
 449 565 l 1
 873 678 l 1
 520 1290 l 1
 684 1334 l 1
 1273 785 l 1
 1726 906 l 2
 1737 909 1749 911 1760 911 c 0
 1816 911 1868 873 1883 816 c 0
EndSplineSet
Validated: 1
EndChar

StartChar: u1F6EC
Encoding: 128748 128748 71
Width: 2048
Flags: HMW
HStem: -154 171 282 252
LayerCount: 2
Fore
SplineSet
213 17 m 1
 1835 17 l 1
 1835 -154 l 1
 213 -154 l 1
 213 17 l 1
1650 286 m 2
 236 665 l 1
 236 1106 l 1
 360 1073 l 1
 439 875 l 1
 864 761 l 1
 864 1468 l 1
 1028 1424 l 1
 1264 655 l 1
 1717 533 l 2
 1774 517 1812 466 1812 409 c 0
 1812 398 1810 387 1807 376 c 0
 1791 319 1740 282 1683 282 c 0
 1672 282 1661 283 1650 286 c 2
EndSplineSet
Validated: 1
EndChar

StartChar: uni24E3
Encoding: 9443 9443 72
Width: 1920
Flags: W
HStem: -270.1 417.736<690.014 1028.81> 991.952 506.147<716.026 1230.72>
VStem: 75.9004 438.514<568.533 884.484> 1404.7 439.397<546.019 813.561>
LayerCount: 2
Fore
SplineSet
960 1498.09960938 m 4
 1447.94726562 1498.09960938 1844.09960938 1101.94726562 1844.09960938 614 c 4
 1844.09960938 126.052734375 1447.94726562 -270.099609375 960 -270.099609375 c 4
 472.052734375 -270.099609375 75.900390625 126.052734375 75.900390625 614 c 4
 75.900390625 1101.94726562 472.052734375 1498.09960938 960 1498.09960938 c 4
798.208984375 147.63671875 m 4
 1190.30957031 147.63671875 1404.70214844 472.544921875 1404.70214844 754.129882812 c 4
 1404.70214844 763.412109375 1404.70214844 772.694335938 1404.26074219 781.537109375 c 4
 1445.81347656 811.59765625 1482.06152344 849.170898438 1510.79394531 892.048828125 c 5
 1472.77832031 875.252929688 1431.66894531 863.758789062 1388.34570312 858.453125 c 5
 1432.55273438 884.978515625 1466.14648438 926.530273438 1482.06152344 976.479492188 c 5
 1440.95019531 952.166992188 1395.42089844 934.486328125 1346.79394531 924.760742188 c 5
 1307.89453125 966.314453125 1252.63671875 991.952148438 1191.19335938 991.952148438 c 4
 1073.60644531 991.952148438 978.124023438 896.46875 978.124023438 778.884765625 c 4
 978.124023438 762.086914062 979.892578125 745.73046875 983.87109375 730.259765625 c 5
 806.607421875 739.100585938 649.682617188 823.974609375 544.473632812 953.053710938 c 5
 526.349609375 921.666992188 515.739257812 884.978515625 515.739257812 846.075195312 c 4
 515.739257812 772.252929688 553.3125 706.830078125 610.779296875 668.814453125 c 5
 575.860351562 669.697265625 543.146484375 679.422851562 514.4140625 695.336914062 c 5
 514.4140625 692.684570312 l 6
 514.4140625 589.24609375 587.794921875 503.48828125 685.487304688 483.594726562 c 5
 667.8046875 478.731445312 648.794921875 476.081054688 629.34765625 476.081054688 c 4
 615.643554688 476.081054688 602.380859375 477.40625 589.120117188 480.060546875 c 5
 616.084960938 395.184570312 694.770507812 333.739257812 788.04296875 331.97265625 c 5
 715.10546875 274.946289062 623.158203125 240.91015625 523.254882812 240.91015625 c 4
 506.013671875 240.91015625 489.216796875 241.794921875 472.41796875 244.004882812 c 5
 565.690429688 183 677.97265625 147.63671875 798.208984375 147.63671875 c 4
EndSplineSet
Validated: 1
EndChar

StartChar: u1F6D2
Encoding: 128722 128722 73
Width: 1920
HStem: -239.333 341.333<483.122 711.931 1336.46 1565.26> 187.333 170.667<621.6 1621.33> 528.667 768<691.2 1441.67> 1296.67 170.666<85.333 256>
VStem: 427.52 340.48<-183.264 45.931> 1280.85 340.479<-183.264 45.931>
LayerCount: 2
Fore
SplineSet
597.333007812 102 m 0xcc
 691.200195312 102 768 25.2001953125 768 -68.6669921875 c 0
 768 -162.533203125 691.200195312 -239.333007812 597.333007812 -239.333007812 c 0
 503.466796875 -239.333007812 427.51953125 -162.533203125 427.51953125 -68.6669921875 c 0
 427.51953125 25.2001953125 503.466796875 102 597.333007812 102 c 0xcc
85.3330078125 1467.33300781 m 1xdc
 364.373046875 1467.33300781 l 1
 444.586914062 1296.66699219 l 1
 1706.66699219 1296.66699219 l 2xdc
 1753.59960938 1296.66699219 1792 1258.26660156 1792 1211.33300781 c 0
 1792 1196.82714844 1788.58691406 1182.3203125 1781.75976562 1170.37304688 c 2
 1476.26660156 616.559570312 l 2
 1447.25292969 563.653320312 1390.93359375 528.666992188 1326.93359375 528.666992188 c 2
 691.200195312 528.666992188 l 1xec
 614.400390625 389.573242188 l 1
 611.83984375 379.333007812 l 2
 611.83984375 367.38671875 621.2265625 358 633.172851562 358 c 2
 1621.33300781 358 l 1
 1621.33300781 187.333007812 l 1
 597.333007812 187.333007812 l 2
 503.466796875 187.333007812 426.666992188 264.133789062 426.666992188 358 c 0
 426.666992188 387.866210938 434.346679688 416.026367188 448 439.919921875 c 2
 563.200195312 648.986328125 l 1
 256 1296.66699219 l 1
 85.3330078125 1296.66699219 l 1
 85.3330078125 1467.33300781 l 1xdc
1450.66699219 102 m 0
 1544.53320312 102 1621.33300781 25.2001953125 1621.33300781 -68.6669921875 c 0
 1621.33300781 -162.533203125 1544.53320312 -239.333007812 1450.66699219 -239.333007812 c 0
 1356.79980469 -239.333007812 1280.85351562 -162.533203125 1280.85351562 -68.6669921875 c 0
 1280.85351562 25.2001953125 1356.79980469 102 1450.66699219 102 c 0
EndSplineSet
Validated: 1
EndChar

StartChar: triagrt
Encoding: 9658 9658 74
Width: 1920
Flags: W
LayerCount: 2
Fore
SplineSet
682.666992188 1211.33300781 m 1
 1621.33300781 614 l 1
 682.666992188 16.6669921875 l 1
 682.666992188 1211.33300781 l 1
EndSplineSet
Validated: 524289
EndChar

StartChar: uni26BD
Encoding: 9917 9917 75
Width: 1920
HStem: -239.333 170.666<812.325 1235.68> 187.333 170.667<830.293 1217.71>
VStem: 170.667 170.666<376.651 650.639> 938.667 170.666<1066.27 1185.73> 1706.67 170.666<376.651 650.232>
CounterMasks: 1 38
LayerCount: 2
Fore
SplineSet
1024 1467.33300781 m 0
 1495.04003906 1467.33300781 1877.33300781 1085.04003906 1877.33300781 614 c 0
 1877.33300781 142.959960938 1495.04003906 -239.333007812 1024 -239.333007812 c 0
 552.959960938 -239.333007812 170.666992188 142.959960938 170.666992188 614 c 0
 170.666992188 1085.04003906 552.959960938 1467.33300781 1024 1467.33300781 c 0
1109.33300781 1185.73339844 m 1
 1109.33300781 1066.26660156 l 1
 1449.81347656 828.186523438 l 1
 1565.01367188 867.440429688 l 1
 1598.29296875 981.787109375 l 2
 1512.10644531 1116.61328125 1379.83984375 1219.01367188 1224.53320312 1266.79980469 c 2
 1109.33300781 1185.73339844 l 1
823.466796875 1266.79980469 m 2
 668.16015625 1218.16015625 535.893554688 1115.75976562 449.70703125 981.787109375 c 2
 482.986328125 867.440429688 l 1
 598.186523438 828.186523438 l 1
 938.666992188 1066.26660156 l 1
 938.666992188 1185.73339844 l 1
 823.466796875 1266.79980469 l 2
604.16015625 177.946289062 m 1
 670.719726562 294.853515625 l 1
 546.133789062 665.200195312 l 1
 428.373046875 706.16015625 l 1
 343.040039062 643.866210938 l 2
 342.186523438 633.626953125 341.333007812 624.240234375 341.333007812 614 c 0
 341.333007812 444.186523438 403.626953125 288.879882812 506.879882812 169.413085938 c 2
 604.16015625 177.946289062 l 1
1237.33300781 -33.6796875 m 2
 1297.06640625 92.61328125 l 1
 1242.453125 187.333007812 l 1
 806.400390625 187.333007812 l 1
 751.787109375 93.466796875 l 1
 810.666992188 -33.6796875 l 2
 878.080078125 -55.8662109375 949.759765625 -68.6669921875 1024 -68.6669921875 c 0
 1098.24023438 -68.6669921875 1169.91992188 -55.8662109375 1237.33300781 -33.6796875 c 2
1217.70703125 358 m 1
 1333.75976562 701.040039062 l 1
 1024 917.787109375 l 1
 715.09375 701.040039062 l 1
 830.29296875 358 l 1
 1217.70703125 358 l 1
1541.12011719 169.413085938 m 2
 1644.37304688 288.879882812 1706.66699219 444.186523438 1706.66699219 614 c 0
 1706.66699219 624.240234375 1705.81347656 633.626953125 1704.95996094 643.013671875 c 2
 1619.62695312 705.306640625 l 1
 1501.01367188 665.200195312 l 1
 1376.42675781 294.853515625 l 1
 1443.83984375 177.946289062 l 1
 1541.12011719 169.413085938 l 2
EndSplineSet
Validated: 524289
EndChar

StartChar: uni26BE
Encoding: 9918 9918 76
Width: 1920
HStem: -239.333 1706.67<860.147 1187.85>
VStem: 170.667 512<412.688 815.312> 853.333 341.334<377.78 850.22> 1365.33 512<412.688 815.312>
CounterMasks: 1 70
LayerCount: 2
Fore
SplineSet
325.120117188 1102.10644531 m 0
 531.626953125 1036.40039062 682.666992188 842.693359375 682.666992188 614 c 0
 682.666992188 385.306640625 531.626953125 191.599609375 325.120117188 125.893554688 c 0
 227.83984375 264.133789062 170.666992188 432.240234375 170.666992188 614 c 0
 170.666992188 795.759765625 227.83984375 963.866210938 325.120117188 1102.10644531 c 0
1722.87988281 1102.10644531 m 0
 1820.16015625 963.866210938 1877.33300781 795.759765625 1877.33300781 614 c 0
 1877.33300781 432.240234375 1820.16015625 264.133789062 1722.87988281 125.893554688 c 0
 1516.37304688 191.599609375 1365.33300781 385.306640625 1365.33300781 614 c 0
 1365.33300781 842.693359375 1516.37304688 1036.40039062 1722.87988281 1102.10644531 c 0
1194.66699219 614 m 0
 1194.66699219 334.106445312 1362.7734375 94.3203125 1603.41308594 -11.4931640625 c 1
 1451.51953125 -152.29296875 1248.42675781 -239.333007812 1024 -239.333007812 c 0
 799.573242188 -239.333007812 596.48046875 -152.29296875 444.586914062 -11.4931640625 c 1
 685.2265625 94.3203125 853.333007812 334.106445312 853.333007812 614 c 0
 853.333007812 893.893554688 685.2265625 1133.6796875 444.586914062 1239.49316406 c 1
 596.48046875 1380.29296875 799.573242188 1467.33300781 1024 1467.33300781 c 0
 1248.42675781 1467.33300781 1451.51953125 1380.29296875 1603.41308594 1239.49316406 c 1
 1362.7734375 1133.6796875 1194.66699219 893.893554688 1194.66699219 614 c 0
EndSplineSet
Validated: 524289
EndChar

StartChar: u1F3C0
Encoding: 127936 127936 77
Width: 1920
VStem: 762.026 176.641<360.551 528.667 699.333 867.449> 1109.33 176.641<360.551 528.667 699.333 867.449>
LayerCount: 2
Fore
SplineSet
1458.34667969 699.333007812 m 1
 1486.50683594 865.733398438 1594.02636719 1003.97363281 1741.65332031 1074.79980469 c 0
 1812.48046875 964.719726562 1859.41308594 836.719726562 1873.06640625 699.333007812 c 1
 1458.34667969 699.333007812 l 1
589.653320312 699.333007812 m 1
 174.93359375 699.333007812 l 1
 188.586914062 836.719726562 235.51953125 964.719726562 306.346679688 1074.79980469 c 0
 453.973632812 1003.97363281 561.493164062 865.733398438 589.653320312 699.333007812 c 1
1285.97363281 699.333007812 m 2
 1109.33300781 699.333007812 l 1
 1109.33300781 1463.06640625 l 1
 1313.28027344 1442.58691406 1495.89355469 1350.42675781 1632.42675781 1211.33300781 c 1
 1446.40039062 1108.08007812 1313.28027344 920.346679688 1285.97363281 699.333007812 c 2
762.026367188 699.333007812 m 2
 734.719726562 920.346679688 601.599609375 1108.08007812 415.573242188 1211.33300781 c 1
 551.252929688 1350.42675781 734.719726562 1442.58691406 938.666992188 1463.06640625 c 1
 938.666992188 699.333007812 l 1
 762.026367188 699.333007812 l 2
1285.97363281 528.666992188 m 2
 1313.28027344 307.653320312 1446.40039062 119.919921875 1632.42675781 16.6669921875 c 1
 1496.74707031 -122.426757812 1313.28027344 -214.586914062 1109.33300781 -235.06640625 c 1
 1109.33300781 528.666992188 l 1
 1285.97363281 528.666992188 l 2
306.346679688 153.200195312 m 0
 235.51953125 263.280273438 188.586914062 391.280273438 174.93359375 528.666992188 c 1
 589.653320312 528.666992188 l 1
 561.493164062 363.120117188 453.120117188 224.026367188 306.346679688 153.200195312 c 0
1458.34667969 528.666992188 m 0
 1873.06640625 528.666992188 l 1
 1859.41308594 391.280273438 1812.48046875 263.280273438 1741.65332031 153.200195312 c 0
 1594.02636719 224.026367188 1486.50683594 362.266601562 1458.34667969 528.666992188 c 0
762.026367188 528.666992188 m 2
 938.666992188 528.666992188 l 1
 938.666992188 -235.06640625 l 1
 734.719726562 -214.586914062 552.106445312 -122.426757812 415.573242188 16.6669921875 c 1
 601.599609375 119.919921875 734.719726562 307.653320312 762.026367188 528.666992188 c 2
EndSplineSet
Validated: 524289
EndChar

StartChar: infinity
Encoding: 8734 8734 78
Width: 1920
HStem: 154.906 170.667<311.984 615.748 1435.52 1736.02> 902.427 170.667<311.984 612.376 1432.25 1736.02>
VStem: 0 171.52<465.722 762.278> 1876.48 171.52<465.984 762.824>
LayerCount: 2
Fore
SplineSet
1587.20019531 1073.09375 m 0
 1841.49316406 1073.09375 2048 868.29296875 2048 614.853515625 c 0
 2048 361.413085938 1841.49316406 155.759765625 1587.20019531 155.759765625 c 0
 1463.46679688 155.759765625 1348.26660156 203.546875 1261.2265625 289.733398438 c 2
 1152.85351562 385.306640625 l 1
 1281.70703125 499.653320312 l 1
 1378.98632812 413.466796875 l 2
 1437.01367188 355.440429688 1510.40039062 325.573242188 1587.20019531 325.573242188 c 0
 1746.7734375 325.573242188 1876.48046875 454.426757812 1876.48046875 614 c 0
 1876.48046875 773.573242188 1746.7734375 902.426757812 1587.20019531 902.426757812 c 0
 1509.546875 902.426757812 1437.01367188 872.559570312 1382.40039062 817.946289062 c 2
 1152.85351562 614 l 1
 1153.70703125 614 l 1
 1024.85351562 497.946289062 l 1
 1024 498.799804688 l 1
 782.506835938 285.466796875 l 2
 699.733398438 202.693359375 583.6796875 154.90625 460.799804688 154.90625 c 0
 206.506835938 154.90625 0 361.413085938 0 614 c 0
 0 866.586914062 206.506835938 1073.09375 460.799804688 1073.09375 c 0
 583.6796875 1073.09375 699.733398438 1025.30664062 786.7734375 938.266601562 c 2
 894.29296875 843.546875 l 1
 765.440429688 729.200195312 l 1
 669.013671875 814.533203125 l 2
 610.986328125 872.559570312 538.453125 902.426757812 460.799804688 902.426757812 c 0
 301.2265625 902.426757812 171.51953125 773.573242188 171.51953125 614 c 0
 171.51953125 454.426757812 301.2265625 325.573242188 460.799804688 325.573242188 c 0
 538.453125 325.573242188 610.986328125 355.440429688 665.599609375 410.053710938 c 2
 895.146484375 614 l 1
 894.29296875 614 l 1
 1024 728.346679688 l 1
 1265.49316406 942.533203125 l 2
 1348.26660156 1025.30664062 1464.3203125 1073.09375 1587.20019531 1073.09375 c 0
EndSplineSet
Validated: 524289
EndChar

StartChar: uni1BE4
Encoding: 7140 7140 79
Width: 1920
HStem: -68.667 21G<1004 1044> 534.64 241.067<800.151 1248.13> 1017.41 241.067<719.29 1329>
LayerCount: 2
Fore
SplineSet
85.3330078125 870 m 1
 344.746582031 1128.98681641 684.586669922 1258.48022461 1024.32006836 1258.48022461 c 0
 1364.0534668 1258.48022461 1703.68017578 1128.98681641 1962.66699219 870 c 1
 1792 699.333007812 l 1
 1579.94677734 911.38671875 1301.97338867 1017.41357422 1024 1017.41357422 c 0
 746.026611328 1017.41357422 468.053222656 911.38671875 256 699.333007812 c 1
 85.3330078125 870 l 1
768 187.333007812 m 1
 838.826660156 258.159667969 931.626708984 293.572998047 1024.32006836 293.572998047 c 0
 1117.01342773 293.572998047 1209.60009766 258.159667969 1280 187.333007812 c 2
 1024 -68.6669921875 l 1
 768 187.333007812 l 1
426.666992188 528.666992188 m 1
 591.786621094 693.360351562 808.106445312 775.70703125 1024.31970215 775.70703125 c 0
 1240.53295898 775.70703125 1456.63964844 693.360351562 1621.33300781 528.666992188 c 1
 1450.66699219 358 l 1
 1332.90673828 475.759765625 1178.45336914 534.639648438 1024 534.639648438 c 0
 869.546630859 534.639648438 715.093261719 475.759765625 597.333007812 358 c 1
 426.666992188 528.666992188 l 1
EndSplineSet
Validated: 524289
EndChar

StartChar: uni2347
Encoding: 9031 9031 80
Width: 1920
HStem: -154 170.667<341.333 1024> 528.667 170.666<682.667 1550.51> 1211.33 170.667<341.333 1024>
VStem: 170.667 170.666<16.667 1211.33>
CounterMasks: 1 e0
LayerCount: 2
Fore
SplineSet
1450.66699219 1040.66699219 m 1
 1877.33300781 614 l 1
 1450.66699219 187.333007812 l 1
 1330.34667969 308.506835938 l 1
 1550.50683594 528.666992188 l 1
 682.666992188 528.666992188 l 1
 682.666992188 699.333007812 l 1
 1550.50683594 699.333007812 l 1
 1330.34667969 920.346679688 l 1
 1450.66699219 1040.66699219 l 1
341.333007812 1211.33300781 m 1
 341.333007812 16.6669921875 l 1
 1024 16.6669921875 l 1
 1024 -154 l 1
 341.333007812 -154 l 2
 247.466796875 -154 170.666992188 -77.2001953125 170.666992188 16.6669921875 c 2
 170.666992188 1211.33300781 l 2
 170.666992188 1305.20019531 247.466796875 1382 341.333007812 1382 c 2
 1024 1382 l 1
 1024 1211.33300781 l 1
 341.333007812 1211.33300781 l 1
EndSplineSet
Validated: 524289
EndChar

StartChar: uni2348
Encoding: 9032 9032 81
Width: 1920
HStem: -154 170.667<1024 1706.67> 528.667 170.666<170.667 1041.07> 1211.33 170.667<1024 1706.67>
VStem: 1706.67 170.666<16.667 1211.33>
CounterMasks: 1 e0
LayerCount: 2
Fore
SplineSet
938.666992188 1040.66699219 m 1
 1365.33300781 614 l 1
 938.666992188 187.333007812 l 1
 819.200195312 306.799804688 l 1
 1041.06640625 528.666992188 l 1
 170.666992188 528.666992188 l 1
 170.666992188 699.333007812 l 1
 1041.06640625 699.333007812 l 1
 819.200195312 921.200195312 l 1
 938.666992188 1040.66699219 l 1
1706.66699219 16.6669921875 m 1
 1706.66699219 1211.33300781 l 1
 1024 1211.33300781 l 1
 1024 1382 l 1
 1706.66699219 1382 l 2
 1800.53320312 1382 1877.33300781 1305.20019531 1877.33300781 1211.33300781 c 2
 1877.33300781 16.6669921875 l 2
 1877.33300781 -77.2001953125 1800.53320312 -154 1706.66699219 -154 c 2
 1024 -154 l 1
 1024 16.6669921875 l 1
 1706.66699219 16.6669921875 l 1
EndSplineSet
Validated: 524289
EndChar

StartChar: uniFF1D
Encoding: 65309 65309 82
Width: 1920
HStem: 358 170.667<341.333 1706.67> 699.333 170.667<341.333 1706.67>
LayerCount: 2
Fore
SplineSet
1706.66699219 870 m 1
 1706.66699219 699.333007812 l 1
 341.333007812 699.333007812 l 1
 341.333007812 870 l 1
 1706.66699219 870 l 1
341.333007812 358 m 1
 341.333007812 528.666992188 l 1
 1706.66699219 528.666992188 l 1
 1706.66699219 358 l 1
 341.333007812 358 l 1
EndSplineSet
Validated: 524289
EndChar

StartChar: ellipsis
Encoding: 8230 8230 83
Width: 1920
HStem: 443.333 341.334<397.402 626.598 909.402 1138.6 1421.4 1650.6>
VStem: 341.333 341.334<499.402 728.598> 853.333 341.334<499.402 728.598> 1365.33 341.334<499.402 728.598>
CounterMasks: 1 70
LayerCount: 2
Fore
SplineSet
512 784.666992188 m 0
 605.866210938 784.666992188 682.666992188 707.866210938 682.666992188 614 c 0
 682.666992188 520.133789062 605.866210938 443.333007812 512 443.333007812 c 0
 418.133789062 443.333007812 341.333007812 520.133789062 341.333007812 614 c 0
 341.333007812 707.866210938 418.133789062 784.666992188 512 784.666992188 c 0
1536 784.666992188 m 0
 1629.86621094 784.666992188 1706.66699219 707.866210938 1706.66699219 614 c 0
 1706.66699219 520.133789062 1629.86621094 443.333007812 1536 443.333007812 c 0
 1442.13378906 443.333007812 1365.33300781 520.133789062 1365.33300781 614 c 0
 1365.33300781 707.866210938 1442.13378906 784.666992188 1536 784.666992188 c 0
1024 784.666992188 m 0
 1117.86621094 784.666992188 1194.66699219 707.866210938 1194.66699219 614 c 0
 1194.66699219 520.133789062 1117.86621094 443.333007812 1024 443.333007812 c 0
 930.133789062 443.333007812 853.333007812 520.133789062 853.333007812 614 c 0
 853.333007812 707.866210938 930.133789062 784.666992188 1024 784.666992188 c 0
EndSplineSet
Validated: 524289
EndChar

StartChar: uniFE19
Encoding: 65049 65049 84
Width: 1920
HStem: -68.667 341.334<909.402 1138.6> 443.333 341.334<909.402 1138.6> 955.333 341.334<909.402 1138.6>
VStem: 853.333 341.334<-12.5976 216.598 499.402 728.598 1011.4 1240.6>
CounterMasks: 1 e0
LayerCount: 2
Fore
SplineSet
1024 955.333007812 m 0
 930.133789062 955.333007812 853.333007812 1032.13378906 853.333007812 1126 c 0
 853.333007812 1219.86621094 930.133789062 1296.66699219 1024 1296.66699219 c 0
 1117.86621094 1296.66699219 1194.66699219 1219.86621094 1194.66699219 1126 c 0
 1194.66699219 1032.13378906 1117.86621094 955.333007812 1024 955.333007812 c 0
1024 784.666992188 m 0
 1117.86621094 784.666992188 1194.66699219 707.866210938 1194.66699219 614 c 0
 1194.66699219 520.133789062 1117.86621094 443.333007812 1024 443.333007812 c 0
 930.133789062 443.333007812 853.333007812 520.133789062 853.333007812 614 c 0
 853.333007812 707.866210938 930.133789062 784.666992188 1024 784.666992188 c 0
1024 272.666992188 m 0
 1117.86621094 272.666992188 1194.66699219 195.866210938 1194.66699219 102 c 0
 1194.66699219 8.1337890625 1117.86621094 -68.6669921875 1024 -68.6669921875 c 0
 930.133789062 -68.6669921875 853.333007812 8.1337890625 853.333007812 102 c 0
 853.333007812 195.866210938 930.133789062 272.666992188 1024 272.666992188 c 0
EndSplineSet
Validated: 524289
EndChar

StartChar: u1F441
Encoding: 128065 128065 85
Width: 1920
HStem: -26 213.333<843.6 1204.4> 358 512<880.75 1167.25> 1040.67 213.333<843.6 1204.4>
VStem: 768 512<470.75 757.25>
CounterMasks: 1 e0
LayerCount: 2
Fore
SplineSet
1024 1254 m 0
 1450.66699219 1254 1815.04003906 988.61328125 1962.66699219 614 c 0
 1815.04003906 239.38671875 1450.66699219 -26 1024 -26 c 0
 597.333007812 -26 232.959960938 239.38671875 85.3330078125 614 c 0
 232.959960938 988.61328125 597.333007812 1254 1024 1254 c 0
1024 187.333007812 m 0
 1259.51953125 187.333007812 1450.66699219 378.48046875 1450.66699219 614 c 0
 1450.66699219 849.51953125 1259.51953125 1040.66699219 1024 1040.66699219 c 0
 788.48046875 1040.66699219 597.333007812 849.51953125 597.333007812 614 c 0
 597.333007812 378.48046875 788.48046875 187.333007812 1024 187.333007812 c 0
1024 870 m 0
 1165.65332031 870 1280 755.653320312 1280 614 c 0
 1280 472.346679688 1165.65332031 358 1024 358 c 0
 882.346679688 358 768 472.346679688 768 614 c 0
 768 755.653320312 882.346679688 870 1024 870 c 0
EndSplineSet
Validated: 524289
EndChar

StartChar: u1F6C8
Encoding: 128712 128712 86
Width: 1920
HStem: -239.333 426.666<958.375 1089.62> 699.333 170.667<938.667 1109.33> 1040.67 426.666<958.375 1089.62>
VStem: 170.667 768<340.405 679.625> 1109.33 768<340.405 679.625>
LayerCount: 2
Fore
SplineSet
1024 1467.33300781 m 0
 1495.04003906 1467.33300781 1877.33300781 1085.04003906 1877.33300781 614 c 0
 1877.33300781 142.959960938 1495.04003906 -239.333007812 1024 -239.333007812 c 0
 552.959960938 -239.333007812 170.666992188 142.959960938 170.666992188 614 c 0
 170.666992188 1085.04003906 552.959960938 1467.33300781 1024 1467.33300781 c 0
1109.33300781 187.333007812 m 1
 1109.33300781 699.333007812 l 1
 938.666992188 699.333007812 l 1
 938.666992188 187.333007812 l 1
 1109.33300781 187.333007812 l 1
1109.33300781 870 m 1
 1109.33300781 1040.66699219 l 1
 938.666992188 1040.66699219 l 1
 938.666992188 870 l 1
 1109.33300781 870 l 1
EndSplineSet
Validated: 524289
EndChar

StartChar: uni23F0
Encoding: 9200 9200 87
Width: 1920
HStem: -239.333 170.666<809.149 1238.7> 1126 170.667<809.3 1238.7>
VStem: 256 170.667<313.967 743.367> 938.667 128<507.333 955.333> 1621.33 170.667<313.967 743.367>
LayerCount: 2
Fore
SplineSet
1877.33300781 1149.89355469 m 1
 1767.25292969 1019.33300781 l 1
 1374.71972656 1348.71972656 l 1
 1484.79980469 1479.28027344 l 1
 1877.33300781 1149.89355469 l 1
672.426757812 1348.71972656 m 1
 280.747070312 1020.18652344 l 1
 170.666992188 1150.74707031 l 1
 563.200195312 1479.28027344 l 1
 672.426757812 1348.71972656 l 1
1066.66699219 955.333007812 m 1
 1066.66699219 507.333007812 l 1
 1408 305.09375 l 1
 1344 200.133789062 l 1
 938.666992188 443.333007812 l 1
 938.666992188 955.333007812 l 1
 1066.66699219 955.333007812 l 1
1024 1296.66699219 m 0
 1448.10644531 1296.66699219 1792 952.7734375 1792 528.666992188 c 0
 1792 104.559570312 1448.10644531 -239.333007812 1024 -239.333007812 c 0
 599.040039062 -239.333007812 256 104.559570312 256 528.666992188 c 0
 256 952.7734375 599.893554688 1296.66699219 1024 1296.66699219 c 0
1024 -68.6669921875 m 0
 1354.24023438 -68.6669921875 1621.33300781 198.426757812 1621.33300781 528.666992188 c 0
 1621.33300781 858.90625 1354.24023438 1126 1024 1126 c 0
 693.759765625 1126 426.666992188 858.90625 426.666992188 528.666992188 c 0
 426.666992188 198.426757812 693.759765625 -68.6669921875 1024 -68.6669921875 c 0
EndSplineSet
Validated: 524289
EndChar

StartChar: uni231A
Encoding: 8986 8986 88
Width: 1920
HStem: -410 512<824.84 1223.16> 1126 512<824.84 1223.16>
VStem: 341.333 170.667<412.085 815.915> 1536 170.667<412.275 815.725>
LayerCount: 2
Fore
SplineSet
0 -410 m 1025
1706.66699219 614 m 0
 1706.66699219 397.252929688 1605.12011719 203.546875 1447.25292969 78.9599609375 c 2
 1365.33300781 -410 l 1
 682.666992188 -410 l 1
 601.599609375 78.9599609375 l 2
 442.879882812 203.546875 341.333007812 396.400390625 341.333007812 614 c 0
 341.333007812 831.599609375 442.879882812 1024.453125 601.599609375 1149.04003906 c 2
 682.666992188 1638 l 1
 1365.33300781 1638 l 1
 1447.25292969 1149.04003906 l 2
 1605.12011719 1024.453125 1706.66699219 830.747070312 1706.66699219 614 c 0
512 614 m 0
 512 331.546875 741.546875 102 1024 102 c 0
 1306.453125 102 1536 331.546875 1536 614 c 0
 1536 896.453125 1306.453125 1126 1024 1126 c 0
 741.546875 1126 512 896.453125 512 614 c 0
EndSplineSet
Validated: 524289
EndChar

StartChar: uni23F2
Encoding: 9202 9202 89
Width: 1920
HStem: -239.333 170.666<809.149 1238.85> 1126 170.667<809.3 1247.32> 1382 170.667<768 1280>
VStem: 256 170.667<313.967 743.367> 938.667 170.666<443.333 955.333> 1621.33 170.667<313.967 751.948>
CounterMasks: 1 1c
LayerCount: 2
Fore
SplineSet
1280 1552.66699219 m 1
 1280 1382 l 1
 768 1382 l 1
 768 1552.66699219 l 1
 1280 1552.66699219 l 1
938.666992188 443.333007812 m 1
 938.666992188 955.333007812 l 1
 1109.33300781 955.333007812 l 1
 1109.33300781 443.333007812 l 1
 938.666992188 443.333007812 l 1
1623.89355469 1007.38671875 m 2
 1728.85351562 875.973632812 1792 709.573242188 1792 528.666992188 c 0
 1792 104.559570312 1448.95996094 -239.333007812 1024 -239.333007812 c 0
 599.040039062 -239.333007812 256 104.559570312 256 528.666992188 c 0
 256 952.7734375 599.893554688 1296.66699219 1024 1296.66699219 c 0
 1204.90625 1296.66699219 1371.30664062 1233.51953125 1503.57324219 1127.70703125 c 2
 1624.74707031 1248.87988281 l 2
 1668.26660156 1213.04003906 1708.37304688 1172.08007812 1745.06640625 1128.55957031 c 2
 1623.89355469 1007.38671875 l 2
1024 -68.6669921875 m 0
 1354.24023438 -68.6669921875 1621.33300781 198.426757812 1621.33300781 528.666992188 c 0
 1621.33300781 858.90625 1354.24023438 1126 1024 1126 c 0
 693.759765625 1126 426.666992188 858.90625 426.666992188 528.666992188 c 0
 426.666992188 198.426757812 693.759765625 -68.6669921875 1024 -68.6669921875 c 0
EndSplineSet
Validated: 524289
EndChar

StartChar: u1F5D1
Encoding: 128465 128465 90
Width: 1920
HStem: 1126 256<810.667 1237.33> 1126 170.667<426.667 725.333 1322.67 1621.33>
VStem: 512 1024<-97.931 1040.67>
LayerCount: 2
Fore
SplineSet
512 16.6669921875 m 2x20
 512 1040.66699219 l 1
 1536 1040.66699219 l 1
 1536 16.6669921875 l 2
 1536 -77.2001953125 1459.20019531 -154 1365.33300781 -154 c 2
 682.666992188 -154 l 2
 588.799804688 -154 512 -77.2001953125 512 16.6669921875 c 2x20
1621.33300781 1296.66699219 m 1x60
 1621.33300781 1126 l 1
 426.666992188 1126 l 1
 426.666992188 1296.66699219 l 1
 725.333007812 1296.66699219 l 1x60
 810.666992188 1382 l 1
 1237.33300781 1382 l 1xa0
 1322.66699219 1296.66699219 l 1
 1621.33300781 1296.66699219 l 1x60
EndSplineSet
Validated: 524289
EndChar

StartChar: uni232B
Encoding: 9003 9003 91
Width: 1920
HStem: 1362 20G<567.893 1924.27>
LayerCount: 2
Fore
SplineSet
1877.33300781 1382 m 2
 1971.20019531 1382 2048 1305.20019531 2048 1211.33300781 c 2
 2048 16.6669921875 l 2
 2048 -77.2001953125 1971.20019531 -154 1877.33300781 -154 c 2
 597.333007812 -154 l 2
 538.453125 -154 492.373046875 -123.280273438 461.653320312 -78.0537109375 c 2
 0 614 l 1
 461.653320312 1306.90625 l 2
 492.373046875 1352.13378906 538.453125 1382 597.333007812 1382 c 2
 1877.33300781 1382 l 2
1621.33300781 307.653320312 m 1
 1314.98632812 614 l 1
 1621.33300781 920.346679688 l 1
 1501.01367188 1040.66699219 l 1
 1194.66699219 734.3203125 l 1
 888.3203125 1040.66699219 l 1
 768 920.346679688 l 1
 1074.34667969 614 l 1
 768 307.653320312 l 1
 888.3203125 187.333007812 l 1
 1194.66699219 493.6796875 l 1
 1501.01367188 187.333007812 l 1
 1621.33300781 307.653320312 l 1
EndSplineSet
Validated: 524289
EndChar

StartChar: uni2708
Encoding: 9992 9992 92
Width: 1920
VStem: 896 256<16.667 486 870 1436.17>
LayerCount: 2
Fore
SplineSet
1877.33300781 272.666992188 m 1
 1152 486 l 1
 1152 16.6669921875 l 1
 1365.33300781 -111.333007812 l 1
 1365.33300781 -239.333007812 l 1
 1024 -154 l 1
 682.666992188 -239.333007812 l 1
 682.666992188 -111.333007812 l 1
 896 16.6669921875 l 1
 896 486 l 1
 170.666992188 272.666992188 l 1
 170.666992188 443.333007812 l 1
 896 870 l 1
 896 1339.33300781 l 2
 896 1410.16015625 953.172851562 1467.33300781 1024 1467.33300781 c 0
 1094.82714844 1467.33300781 1152 1410.16015625 1152 1339.33300781 c 2
 1152 870 l 1
 1877.33300781 443.333007812 l 1
 1877.33300781 272.666992188 l 1
EndSplineSet
Validated: 524289
EndChar

StartChar: uni21C4
Encoding: 8644 8644 93
Width: 1920
HStem: -68.667 21G<492 512> 187.333 170.667<512 1792> 870 170.667<256 1536>
LayerCount: 2
Fore
SplineSet
1877.33300781 955.333007812 m 1
 1536 614 l 1
 1536 870 l 1
 256 870 l 1
 256 1040.66699219 l 1
 1536 1040.66699219 l 1
 1536 1296.66699219 l 1
 1877.33300781 955.333007812 l 1
170.666992188 272.666992188 m 1
 512 614 l 1
 512 358 l 1
 1792 358 l 1
 1792 187.333007812 l 1
 512 187.333007812 l 1
 512 -68.6669921875 l 1
 170.666992188 272.666992188 l 1
EndSplineSet
Validated: 524289
EndChar

StartChar: u1F4CE
Encoding: 128206 128206 94
Width: 2048
HStem: -324.667 128<904.573 1228.76> 102 128<992.506 1140.83> 1424.67 128<812.265 1065.07>
VStem: 597.333 128<-16.7891 1336.52> 853.333 128<242.006 1126> 1152 128<242.006 1336.52> 1408 128<-16.7891 1126>
LayerCount: 2
Fore
SplineSet
1408 1126 m 1
 1536 1126 l 1
 1536 144.666992188 l 2
 1536 -114.747070312 1326.08007812 -324.666992188 1066.66699219 -324.666992188 c 0
 807.252929688 -324.666992188 597.333007812 -114.747070312 597.333007812 144.666992188 c 2
 597.333007812 1211.33300781 l 2
 597.333007812 1399.91992188 750.080078125 1552.66699219 938.666992188 1552.66699219 c 0
 1127.25292969 1552.66699219 1280 1399.91992188 1280 1211.33300781 c 2
 1280 315.333007812 l 2
 1280 197.573242188 1184.42675781 102 1066.66699219 102 c 0
 948.90625 102 853.333007812 197.573242188 853.333007812 315.333007812 c 2
 853.333007812 1126 l 1
 981.333007812 1126 l 1
 981.333007812 315.333007812 l 2
 981.333007812 268.400390625 1019.73339844 230 1066.66699219 230 c 0
 1113.59960938 230 1152 268.400390625 1152 315.333007812 c 2
 1152 1211.33300781 l 2
 1152 1329.09375 1056.42675781 1424.66699219 938.666992188 1424.66699219 c 0
 820.90625 1424.66699219 725.333007812 1329.09375 725.333007812 1211.33300781 c 2
 725.333007812 144.666992188 l 2
 725.333007812 -43.919921875 878.080078125 -196.666992188 1066.66699219 -196.666992188 c 0
 1255.25292969 -196.666992188 1408 -43.919921875 1408 144.666992188 c 2
 1408 1126 l 1
EndSplineSet
Validated: 524289
EndChar

StartChar: u1F6CE
Encoding: 128718 128718 95
Width: 2048
HStem: 16.667 170.666<170.667 1877.33> 272.667 938.666<909.402 1138.6>
VStem: 853.333 341.334<974.215 1155.26>
LayerCount: 2
Fore
SplineSet
170.666992188 187.333007812 m 1
 1877.33300781 187.333007812 l 1
 1877.33300781 16.6669921875 l 1
 170.666992188 16.6669921875 l 1
 170.666992188 187.333007812 l 1
1181.01367188 973.252929688 m 1
 1514.66699219 904.133789062 1768.95996094 619.973632812 1792 272.666992188 c 1
 256 272.666992188 l 1
 279.040039062 619.973632812 533.333007812 904.133789062 866.986328125 973.252929688 c 1
 858.453125 993.733398438 853.333007812 1016.7734375 853.333007812 1040.66699219 c 0
 853.333007812 1134.53320312 930.133789062 1211.33300781 1024 1211.33300781 c 0
 1117.86621094 1211.33300781 1194.66699219 1134.53320312 1194.66699219 1040.66699219 c 0
 1194.66699219 1016.7734375 1189.546875 993.733398438 1181.01367188 973.252929688 c 1
EndSplineSet
Validated: 524289
EndChar

StartChar: u1F686
Encoding: 128646 128646 96
Width: 2048
HStem: 16.667 170.666<544.308 640 1408 1503.69> 443.333 341.334<543.168 736.832 1311.17 1504.83> 1126 341.333<604.583 938.667 1109.33 1458.3>
VStem: 341.333 170.667<219.641 412.165 784.667 1126> 768 512<218.501 412.165> 938.667 170.666<784.667 1126> 1536 170.667<219.641 412.165 784.667 1126>
LayerCount: 2
Fore
SplineSet
1024 1467.33300781 m 0xf2
 1401.17285156 1467.33300781 1706.66699219 1424.66699219 1706.66699219 1126 c 2
 1706.66699219 315.333007812 l 2
 1706.66699219 150.639648438 1572.69335938 16.6669921875 1408 16.6669921875 c 1
 1536 -111.333007812 l 1
 1536 -154 l 1
 1365.33300781 -154 l 1
 1194.66699219 16.6669921875 l 1
 872.959960938 16.6669921875 l 1
 702.29296875 -154 l 1
 512 -154 l 1
 512 -111.333007812 l 1
 640 16.6669921875 l 1
 475.306640625 16.6669921875 341.333007812 150.639648438 341.333007812 315.333007812 c 2
 341.333007812 1126 l 2
 341.333007812 1424.66699219 682.666992188 1467.33300781 1024 1467.33300781 c 0xf2
640 187.333007812 m 0
 710.827148438 187.333007812 768 244.506835938 768 315.333007812 c 0xfa
 768 386.16015625 710.827148438 443.333007812 640 443.333007812 c 0
 569.172851562 443.333007812 512 386.16015625 512 315.333007812 c 0
 512 244.506835938 569.172851562 187.333007812 640 187.333007812 c 0
938.666992188 784.666992188 m 1xf6
 938.666992188 1126 l 1
 512 1126 l 1
 512 784.666992188 l 1
 938.666992188 784.666992188 l 1xf6
1109.33300781 784.666992188 m 1
 1536 784.666992188 l 1
 1536 1126 l 1
 1109.33300781 1126 l 1
 1109.33300781 784.666992188 l 1
1408 187.333007812 m 0
 1478.82714844 187.333007812 1536 244.506835938 1536 315.333007812 c 0
 1536 386.16015625 1478.82714844 443.333007812 1408 443.333007812 c 0
 1337.17285156 443.333007812 1280 386.16015625 1280 315.333007812 c 0xfa
 1280 244.506835938 1337.17285156 187.333007812 1408 187.333007812 c 0
EndSplineSet
Validated: 524289
EndChar

StartChar: u1F6A6
Encoding: 128678 128678 97
Width: 2048
HStem: -154 170.667<909.064 1138.94> 358 85.333<912.123 1135.53> 784.667 85.333<912.123 1135.53> 1211.33 170.667<909.064 1138.6>
VStem: 597.333 853.334<-143.661 16.667 28.6133 28.6133 358 443.333 784.667 881.946 1211.33 1371.66>
LayerCount: 2
Fore
SplineSet
1706.66699219 784.666992188 m 1
 1706.66699219 625.946289062 1597.44042969 493.6796875 1450.66699219 455.280273438 c 2
 1450.66699219 358 l 1
 1706.66699219 358 l 1
 1706.66699219 199.280273438 1597.44042969 67.013671875 1450.66699219 28.61328125 c 2
 1450.66699219 -68.6669921875 l 2
 1450.66699219 -115.599609375 1412.26660156 -154 1365.33300781 -154 c 2
 682.666992188 -154 l 2
 635.733398438 -154 597.333007812 -115.599609375 597.333007812 -68.6669921875 c 2
 597.333007812 28.61328125 l 2
 450.559570312 67.013671875 341.333007812 199.280273438 341.333007812 358 c 1
 597.333007812 358 l 1
 597.333007812 455.280273438 l 2
 450.559570312 493.6796875 341.333007812 625.946289062 341.333007812 784.666992188 c 1
 597.333007812 784.666992188 l 1
 597.333007812 881.946289062 l 2
 450.559570312 920.346679688 341.333007812 1052.61328125 341.333007812 1211.33300781 c 1
 597.333007812 1211.33300781 l 1
 597.333007812 1296.66699219 l 2
 597.333007812 1343.59960938 635.733398438 1382 682.666992188 1382 c 2
 1365.33300781 1382 l 2
 1412.26660156 1382 1450.66699219 1343.59960938 1450.66699219 1296.66699219 c 2
 1450.66699219 1211.33300781 l 1
 1706.66699219 1211.33300781 l 1
 1706.66699219 1052.61328125 1597.44042969 920.346679688 1450.66699219 881.946289062 c 2
 1450.66699219 784.666992188 l 1
 1706.66699219 784.666992188 l 1
1024 16.6669921875 m 0
 1118.71972656 16.6669921875 1194.66699219 93.466796875 1194.66699219 187.333007812 c 0
 1194.66699219 281.200195312 1117.86621094 358 1024 358 c 0
 929.280273438 358 853.333007812 281.200195312 853.333007812 187.333007812 c 0
 853.333007812 93.466796875 929.280273438 16.6669921875 1024 16.6669921875 c 0
1024 443.333007812 m 0
 1118.71972656 443.333007812 1194.66699219 520.133789062 1194.66699219 614 c 0
 1194.66699219 707.866210938 1117.86621094 784.666992188 1024 784.666992188 c 0
 929.280273438 784.666992188 853.333007812 707.866210938 853.333007812 614 c 0
 853.333007812 520.133789062 929.280273438 443.333007812 1024 443.333007812 c 0
1024 870 m 0
 1118.71972656 870 1194.66699219 946.799804688 1194.66699219 1040.66699219 c 0
 1194.66699219 1135.38671875 1117.86621094 1211.33300781 1024 1211.33300781 c 0
 929.280273438 1211.33300781 853.333007812 1135.38671875 853.333007812 1040.66699219 c 0
 853.333007812 946.799804688 929.280273438 870 1024 870 c 0
EndSplineSet
Validated: 524289
EndChar

StartChar: uni263E
Encoding: 9790 9790 98
Width: 2048
HStem: -239.333 1706.67<921.072 1349.97>
VStem: 341.333 853.334<343.145 884.855>
LayerCount: 2
Fore
SplineSet
1194.66699219 1467.33300781 m 0
 1349.97363281 1467.33300781 1495.89355469 1424.66699219 1621.33300781 1352.13378906 c 1
 1366.18652344 1204.50683594 1194.66699219 929.733398438 1194.66699219 614 c 0
 1194.66699219 298.266601562 1366.18652344 23.4931640625 1621.33300781 -124.133789062 c 1
 1495.89355469 -196.666992188 1349.97363281 -239.333007812 1194.66699219 -239.333007812 c 0
 723.626953125 -239.333007812 341.333007812 142.959960938 341.333007812 614 c 0
 341.333007812 1085.04003906 723.626953125 1467.33300781 1194.66699219 1467.33300781 c 0
EndSplineSet
Validated: 524289
EndChar

StartChar: u1F4BB
Encoding: 128187 128187 99
Width: 2048
HStem: -68.667 341.334<341.333 1706.67> -68.667 170.667<0 341.333 1706.67 2048> 1126 170.667<341.333 1706.67>
VStem: 170.667 170.666<272.667 1126> 1706.67 169.813<272.667 1126>
LayerCount: 2
Fore
SplineSet
1706.66699219 102 m 1x78
 2048 102 l 1
 2048 -68.6669921875 l 1
 0 -68.6669921875 l 1
 0 102 l 1
 341.333007812 102 l 1x78
 247.466796875 102 170.666992188 178.799804688 170.666992188 272.666992188 c 2
 170.666992188 1126 l 2
 170.666992188 1219.86621094 247.466796875 1296.66699219 341.333007812 1296.66699219 c 2
 1706.66699219 1296.66699219 l 2
 1800.53320312 1296.66699219 1877.33300781 1219.86621094 1877.33300781 1126 c 2
 1876.48046875 272.666992188 l 2xb8
 1876.48046875 178.799804688 1800.53320312 102 1706.66699219 102 c 1x78
341.333007812 1126 m 1
 341.333007812 272.666992188 l 1
 1706.66699219 272.666992188 l 1xb8
 1706.66699219 1126 l 1
 341.333007812 1126 l 1
EndSplineSet
Validated: 524289
EndChar

StartChar: u1F366
Encoding: 127846 127846 100
Width: 2048
HStem: 528.667 938.666<830.062 1217.94>
VStem: 341.333 1365.33<641.385 929.327>
LayerCount: 2
Fore
SplineSet
750.080078125 579.866210938 m 2
 1028.26660156 49.09375 l 1
 1298.7734375 579.013671875 l 2
 1289.38671875 585.83984375 1280.85351562 592.666992188 1273.17285156 600.346679688 c 0
 1201.49316406 555.120117188 1115.30664062 528.666992188 1024 528.666992188 c 0
 932.693359375 528.666992188 846.506835938 555.120117188 774.827148438 600.346679688 c 0
 767.146484375 592.666992188 758.61328125 585.83984375 750.080078125 579.866210938 c 2
582.827148438 529.51953125 m 2
 448 537.200195312 341.333007812 648.133789062 341.333007812 784.666992188 c 0
 341.333007812 911.813476562 434.346679688 1017.62695312 556.373046875 1037.25292969 c 0
 576 1277.89355469 778.240234375 1467.33300781 1024 1467.33300781 c 0
 1269.75976562 1467.33300781 1472 1277.89355469 1491.62695312 1037.25292969 c 0
 1613.65332031 1017.62695312 1706.66699219 911.813476562 1706.66699219 784.666992188 c 0
 1706.66699219 648.986328125 1600.85351562 537.200195312 1466.87988281 529.51953125 c 2
 1029.97363281 -324.666992188 l 1
 582.827148438 529.51953125 l 2
EndSplineSet
Validated: 524289
EndChar

StartChar: u1F354
Encoding: 127828 127828 101
Width: 2048
HStem: -68.667 341.334<226.736 1821.26> 400.667 170.666<170.667 292.11 617.943 860.387 1186.26 1428.71> 486 170.667<334.966 577.577 903.452 1145.9 1471.77 1714.21> 784.667 512<673.624 1376.08>
LayerCount: 2
Fore
SplineSet
1877.33300781 784.666992188 m 2x90
 172.373046875 784.666992188 l 2
 171.473554114 793.886776907 171.029618062 803.054711263 171.029618062 812.164207067 c 0
 171.029618062 1079.59915819 553.649967514 1296.66699219 1024.85351562 1296.66699219 c 0
 1496.05611871 1296.66699219 1878.67643666 1079.59915877 1878.67643666 812.164208142 c 0
 1878.67643666 803.054711984 1878.23250061 793.88677727 1877.33300781 784.666992188 c 2x90
456.533203125 486 m 0xb0
 409.599609375 486 390.827148438 474.90625 359.252929688 455.280273438 c 0
 318.29296875 432.240234375 265.38671875 400.666992188 170.666992188 400.666992188 c 1
 170.666992188 571.333007812 l 1xd0
 218.453125 571.333007812 237.2265625 582.426757812 268.799804688 602.053710938 c 0
 307.200195312 625.09375 360.106445312 656.666992188 454.827148438 656.666992188 c 0xb0
 549.546875 656.666992188 602.453125 625.09375 640.853515625 602.053710938 c 0
 672.426757812 583.280273438 692.053710938 571.333007812 738.986328125 571.333007812 c 0xd0
 786.7734375 571.333007812 805.546875 582.426757812 837.120117188 602.053710938 c 0
 875.51953125 625.09375 928.426757812 656.666992188 1023.14648438 656.666992188 c 0xb0
 1117.86621094 656.666992188 1170.7734375 625.09375 1209.17285156 602.053710938 c 0
 1240.74707031 583.280273438 1260.37304688 571.333007812 1307.30664062 571.333007812 c 0xd0
 1354.24023438 571.333007812 1373.86621094 582.426757812 1405.44042969 602.053710938 c 0
 1443.83984375 625.09375 1496.74707031 656.666992188 1591.46679688 656.666992188 c 0xb0
 1686.18652344 656.666992188 1739.09375 625.09375 1777.49316406 602.053710938 c 0
 1809.06640625 583.280273438 1876.48046875 569.626953125 1876.48046875 569.626953125 c 1
 1876.48046875 400.666992188 l 1xd0
 1782.61328125 401.51953125 1729.70703125 432.240234375 1691.30664062 455.280273438 c 0
 1659.73339844 474.053710938 1640.10644531 486 1593.17285156 486 c 0xb0
 1545.38671875 486 1526.61328125 474.90625 1495.04003906 455.280273438 c 0
 1456.63964844 432.240234375 1403.73339844 400.666992188 1309.01367188 400.666992188 c 0xd0
 1214.29296875 400.666992188 1161.38671875 432.240234375 1122.98632812 455.280273438 c 0
 1091.41308594 474.053710938 1071.78710938 486 1024.85351562 486 c 0xb0
 977.06640625 486 958.29296875 474.90625 926.719726562 455.280273438 c 0
 888.3203125 432.240234375 835.413085938 400.666992188 740.693359375 400.666992188 c 0xd0
 645.973632812 400.666992188 593.06640625 432.240234375 554.666992188 455.280273438 c 0
 523.09375 474.053710938 503.466796875 486 456.533203125 486 c 0xb0
170.666992188 272.666992188 m 1
 1877.33300781 272.666992188 l 1
 1877.33300781 102 l 2
 1877.33300781 8.1337890625 1800.53320312 -68.6669921875 1706.66699219 -68.6669921875 c 2
 341.333007812 -68.6669921875 l 2
 247.466796875 -68.6669921875 170.666992188 8.1337890625 170.666992188 102 c 2
 170.666992188 272.666992188 l 1
EndSplineSet
Validated: 524289
EndChar

StartChar: u1F56D
Encoding: 128365 128365 102
Width: 2048
HStem: -239.333 170.666<957.36 1137.85>
VStem: 173.227 170.667<742 951.761> 896 256<1225.91 1393.5> 1704.11 170.667<742 951.761>
CounterMasks: 1 70
LayerCount: 2
Fore
SplineSet
646.827148438 1289.83984375 m 1
 472.747070312 1166.10644531 356.693359375 968.133789062 343.893554688 742 c 2
 173.2265625 742 l 1
 185.172851562 1015.06640625 320 1255.70703125 524.799804688 1411.86621094 c 2
 646.827148438 1289.83984375 l 1
1704.10644531 742 m 2
 1691.30664062 968.133789062 1574.40039062 1166.10644531 1402.02636719 1289.83984375 c 1
 1523.20019531 1411.86621094 l 2
 1727.14648438 1255.70703125 1861.97363281 1015.06640625 1874.7734375 742 c 1
 1704.10644531 742 l 2
1536 699.333007812 m 2
 1536 272.666992188 l 1
 1706.66699219 102 l 1
 1706.66699219 16.6669921875 l 1
 341.333007812 16.6669921875 l 1
 341.333007812 102 l 1
 512 272.666992188 l 1
 512 699.333007812 l 2
 512 962.16015625 651.09375 1180.61328125 896 1238.63964844 c 2
 896 1296.66699219 l 2
 896 1367.49316406 953.172851562 1424.66699219 1024 1424.66699219 c 0
 1094.82714844 1424.66699219 1152 1367.49316406 1152 1296.66699219 c 2
 1152 1238.63964844 l 2
 1396.05371094 1180.61328125 1536 961.306640625 1536 699.333007812 c 2
1024 -239.333007812 m 0
 929.280273438 -239.333007812 853.333007812 -162.533203125 852.48046875 -68.6669921875 c 1
 1193.81347656 -68.6669921875 l 1
 1193.81347656 -92.5595703125 1189.546875 -114.747070312 1181.01367188 -135.2265625 c 0
 1158.82714844 -186.426757812 1113.59960938 -223.973632812 1058.13378906 -235.919921875 c 0
 1047.04003906 -238.48046875 1035.94628906 -239.333007812 1024 -239.333007812 c 0
EndSplineSet
Validated: 524289
EndChar

StartChar: u1F514
Encoding: 128276 128276 103
Width: 2048
HStem: -239.333 170.666<957.373 1090.27>
VStem: 896 256<1225.91 1393.5>
LayerCount: 2
Fore
SplineSet
1024 -239.333007812 m 0
 929.280273438 -239.333007812 853.333007812 -162.533203125 853.333007812 -68.6669921875 c 1
 1194.66699219 -68.6669921875 l 1
 1194.66699219 -162.533203125 1117.86621094 -239.333007812 1024 -239.333007812 c 0
1536 272.666992188 m 1
 1706.66699219 102 l 1
 1706.66699219 16.6669921875 l 1
 341.333007812 16.6669921875 l 1
 341.333007812 102 l 1
 512 272.666992188 l 1
 512 699.333007812 l 2
 512 962.16015625 651.09375 1180.61328125 896 1238.63964844 c 2
 896 1296.66699219 l 2
 896 1367.49316406 953.172851562 1424.66699219 1024 1424.66699219 c 0
 1094.82714844 1424.66699219 1152 1367.49316406 1152 1296.66699219 c 2
 1152 1238.63964844 l 2
 1396.05371094 1180.61328125 1536 961.306640625 1536 699.333007812 c 2
 1536 272.666992188 l 1
EndSplineSet
Validated: 524289
EndChar

StartChar: u1F515
Encoding: 128277 128277 104
Width: 2048
HStem: -239.333 170.666<957.373 1090.63>
VStem: 896 256<1225.91 1393.5>
LayerCount: 2
Fore
SplineSet
1706.66699219 43.1201171875 m 1
 1792 -44.7734375 l 1
 1683.62695312 -153.146484375 l 1
 1512.95996094 17.51953125 l 1
 341.333007812 17.51953125 l 1
 341.333007812 102.853515625 l 1
 512 273.51953125 l 1
 512 700.186523438 l 2
 512 807.70703125 535.893554688 907.546875 580.266601562 992.026367188 c 2
 580.266601562 992.879882812 l 1
 341.333007812 1231.81347656 l 1
 449.70703125 1340.18652344 l 1
 669.013671875 1114.05371094 l 1
 1706.66699219 43.1201171875 l 1
1024 -239.333007812 m 0
 929.280273438 -239.333007812 853.333007812 -163.38671875 853.333007812 -68.6669921875 c 1
 1194.66699219 -68.6669921875 l 1
 1194.66699219 -163.38671875 1118.71972656 -239.333007812 1024 -239.333007812 c 0
1536 385.306640625 m 1
 773.120117188 1190.85351562 l 2
 773.120117188 1191.70703125 773.973632812 1191.70703125 773.973632812 1191.70703125 c 2
 792.747070312 1201.09375 812.373046875 1210.48046875 832 1218.16015625 c 0
 832.853515625 1219.01367188 832.853515625 1219.01367188 833.70703125 1219.01367188 c 2
 834.559570312 1219.01367188 l 2
 843.09375 1222.42675781 851.626953125 1225.83984375 860.16015625 1228.40039062 c 0
 871.252929688 1231.81347656 883.200195312 1236.08007812 896 1238.63964844 c 2
 896 1296.66699219 l 2
 896 1367.49316406 953.172851562 1424.66699219 1024 1424.66699219 c 0
 1094.82714844 1424.66699219 1152 1367.49316406 1152 1296.66699219 c 2
 1152 1238.63964844 l 2
 1396.05371094 1180.61328125 1536 962.16015625 1536 699.333007812 c 2
 1536 385.306640625 l 1
EndSplineSet
Validated: 524289
EndChar

StartChar: u1F6CF
Encoding: 128719 128719 105
Width: 2048
HStem: 187.333 170.667<341.333 1706.67> 614 170.667<426.667 938.667 1109.33 1621.33> 1040.67 170.666<442.124 927.09 1120.91 1605.88>
VStem: 170.667 170.666<16.667 187.333 358 602.864> 256 170.667<784.667 1025.21> 938.667 170.666<784.667 1030.33> 1621.33 170.667<784.667 1025.21> 1706.67 170.666<16.667 187.333 358 602.864>
LayerCount: 2
Fore
SplineSet
1792 718.106445312 m 2xee
 1844.05371094 671.172851562 1877.33300781 603.759765625 1877.33300781 528.666992188 c 2
 1877.33300781 16.6669921875 l 1
 1706.66699219 16.6669921875 l 1
 1706.66699219 187.333007812 l 1
 341.333007812 187.333007812 l 1
 341.333007812 16.6669921875 l 1
 170.666992188 16.6669921875 l 1
 170.666992188 528.666992188 l 2xf5
 170.666992188 603.759765625 203.946289062 671.172851562 256 718.106445312 c 2
 256 955.333007812 l 2
 256 1096.13378906 371.200195312 1211.33300781 512 1211.33300781 c 2
 853.333007812 1211.33300781 l 2
 919.040039062 1211.33300781 978.7734375 1185.73339844 1024 1144.7734375 c 0
 1069.2265625 1185.73339844 1128.95996094 1211.33300781 1194.66699219 1211.33300781 c 2
 1536 1211.33300781 l 2
 1676.79980469 1211.33300781 1792 1096.13378906 1792 955.333007812 c 2
 1792 718.106445312 l 2xee
1194.66699219 1040.66699219 m 2
 1147.73339844 1040.66699219 1109.33300781 1002.26660156 1109.33300781 955.333007812 c 2
 1109.33300781 784.666992188 l 1
 1621.33300781 784.666992188 l 1
 1621.33300781 955.333007812 l 2xe6
 1621.33300781 1002.26660156 1582.93359375 1040.66699219 1536 1040.66699219 c 2
 1194.66699219 1040.66699219 l 2
426.666992188 955.333007812 m 2xec
 426.666992188 784.666992188 l 1
 938.666992188 784.666992188 l 1
 938.666992188 955.333007812 l 2
 938.666992188 1002.26660156 900.266601562 1040.66699219 853.333007812 1040.66699219 c 2
 512 1040.66699219 l 2
 465.06640625 1040.66699219 426.666992188 1002.26660156 426.666992188 955.333007812 c 2xec
341.333007812 358 m 1xf4
 1706.66699219 358 l 1
 1706.66699219 528.666992188 l 2xf5
 1706.66699219 575.599609375 1668.26660156 614 1621.33300781 614 c 2
 426.666992188 614 l 2xee
 379.733398438 614 341.333007812 575.599609375 341.333007812 528.666992188 c 2
 341.333007812 358 l 1xf4
EndSplineSet
Validated: 524289
EndChar

StartChar: u1F355
Encoding: 127829 127829 106
Width: 2048
HStem: 1211.33 256<722.281 1176.32>
LayerCount: 2
Fore
SplineSet
1024 1467.33300781 m 0
 1328.63964844 1467.33300781 1602.55957031 1335.06640625 1791.14648438 1126 c 2
 1024 -239.333007812 l 1
 256.853515625 1126 l 2
 446.29296875 1335.91992188 719.360351562 1467.33300781 1024 1467.33300781 c 0
597.333007812 1040.66699219 m 0
 597.333007812 946.799804688 674.133789062 870 768 870 c 0
 861.866210938 870 938.666992188 946.799804688 938.666992188 1040.66699219 c 0
 938.666992188 1134.53320312 861.866210938 1211.33300781 768 1211.33300781 c 0
 674.133789062 1211.33300781 597.333007812 1134.53320312 597.333007812 1040.66699219 c 0
1024 358 m 0
 1117.86621094 358 1194.66699219 434.799804688 1194.66699219 528.666992188 c 0
 1194.66699219 622.533203125 1117.86621094 699.333007812 1024 699.333007812 c 0
 930.133789062 699.333007812 853.333007812 622.533203125 853.333007812 528.666992188 c 0
 853.333007812 434.799804688 930.133789062 358 1024 358 c 0
EndSplineSet
Validated: 524289
EndChar

StartChar: female
Encoding: 9792 9792 107
Width: 2048
HStem: 16.667 170.666<768 938.667 1109.33 1280> 366.533 162.134<869.244 938.667 1109.33 1178.76> 1126 170.667<871.317 1176.68>
VStem: 554.667 170.666<672.969 980.016> 938.667 170.666<-154 16.667 187.333 375.786> 1322.67 170.666<672.969 980.016>
CounterMasks: 1 1c
LayerCount: 2
Fore
SplineSet
1493.33300781 827.333007812 m 0
 1493.33300781 596.93359375 1327.78710938 406.639648438 1109.33300781 366.533203125 c 2
 1109.33300781 187.333007812 l 1
 1280 187.333007812 l 1
 1280 16.6669921875 l 1
 1109.33300781 16.6669921875 l 1
 1109.33300781 -154 l 1
 938.666992188 -154 l 1
 938.666992188 16.6669921875 l 1
 768 16.6669921875 l 1
 768 187.333007812 l 1
 938.666992188 187.333007812 l 1
 938.666992188 366.533203125 l 2
 720.212890625 406.639648438 554.666992188 596.93359375 554.666992188 827.333007812 c 0
 554.666992188 1086.74707031 764.586914062 1296.66699219 1024 1296.66699219 c 0
 1283.41308594 1296.66699219 1493.33300781 1086.74707031 1493.33300781 827.333007812 c 0
725.333007812 827.333007812 m 0
 725.333007812 662.639648438 859.306640625 528.666992188 1024 528.666992188 c 0
 1188.69335938 528.666992188 1322.66699219 662.639648438 1322.66699219 827.333007812 c 0
 1322.66699219 992.026367188 1188.69335938 1126 1024 1126 c 0
 859.306640625 1126 725.333007812 992.026367188 725.333007812 827.333007812 c 0
EndSplineSet
Validated: 524289
EndChar

StartChar: male
Encoding: 9794 9794 108
Width: 2048
HStem: -68.667 170.667<657.984 963.349> 699.333 170.667<657.984 965.102> 1126 170.667<1194.67 1414.83>
VStem: 341.333 170.667<247.984 553.349> 1109.33 170.667<247.984 555.171> 1536 170.667<784.667 1004.83>
LayerCount: 2
Fore
SplineSet
810.666992188 699.333007812 m 0
 645.973632812 699.333007812 512 565.360351562 512 400.666992188 c 0
 512 235.973632812 645.973632812 102 810.666992188 102 c 0
 975.360351562 102 1109.33300781 235.973632812 1109.33300781 400.666992188 c 0
 1109.33300781 565.360351562 975.360351562 699.333007812 810.666992188 699.333007812 c 0
810.666992188 870 m 0
 909.653320312 870 1000.95996094 839.280273438 1076.05371094 787.2265625 c 2
 1414.82714844 1126 l 1
 1194.66699219 1126 l 1
 1194.66699219 1296.66699219 l 1
 1706.66699219 1296.66699219 l 1
 1706.66699219 784.666992188 l 1
 1536 784.666992188 l 1
 1536 1004.82714844 l 1
 1197.2265625 666.90625 l 2
 1249.28027344 590.959960938 1280 499.653320312 1280 400.666992188 c 0
 1280 141.252929688 1070.08007812 -68.6669921875 810.666992188 -68.6669921875 c 0
 551.252929688 -68.6669921875 341.333007812 141.252929688 341.333007812 400.666992188 c 0
 341.333007812 660.080078125 551.252929688 870 810.666992188 870 c 0
EndSplineSet
Validated: 524289
EndChar

StartChar: u1F3CF
Encoding: 127951 127951 109
Width: 2048
HStem: 870 597.333<1423.8 1733.54>
VStem: 1280 597.333<1013.8 1323.54>
LayerCount: 2
Fore
SplineSet
1284.26660156 544.879882812 m 2
 1300.90673828 528.239746094 1309.22680664 506.479736328 1309.22680664 484.719726562 c 0
 1309.22680664 462.959716797 1300.90673828 441.199707031 1284.26660156 424.559570312 c 2
 1042.7734375 183.06640625 l 2
 1026.13330078 166.426757812 1004.37329102 158.106933594 982.61328125 158.106933594 c 0
 960.853271484 158.106933594 939.093261719 166.426757812 922.453125 183.06640625 c 2
 197.973632812 907.546875 l 2
 181.333496094 924.187011719 173.013427734 945.947021484 173.013427734 967.70690918 c 0
 173.013427734 989.466796875 181.333496094 1011.2265625 197.973632812 1027.86621094 c 2
 439.466796875 1269.36035156 l 2
 456.106933594 1286 477.866943359 1294.31982422 499.626953125 1294.31982422 c 0
 521.386962891 1294.31982422 543.146972656 1286 559.787109375 1269.36035156 c 2
 1284.26660156 544.879882812 l 2
1585.81835938 -239.23046875 m 1
 1223.78320312 122.8046875 l 1
 1344.46191406 243.482421875 l 1
 1706.49707031 -118.552734375 l 1
 1585.81835938 -239.23046875 l 1
1280 1168.66699219 m 0
 1280 1333.61523438 1413.71777344 1467.33300781 1578.66699219 1467.33300781 c 0
 1743.61523438 1467.33300781 1877.33300781 1333.61523438 1877.33300781 1168.66699219 c 0
 1877.33300781 1003.71777344 1743.61523438 870 1578.66699219 870 c 0
 1413.71777344 870 1280 1003.71777344 1280 1168.66699219 c 0
EndSplineSet
Validated: 524289
EndChar

StartChar: u1F3C9
Encoding: 127945 127945 110
Width: 2048
HStem: -193.253 173.227<700.587 975.791> 1248.03 173.227<1072.21 1347.41>
VStem: 217.562 171.558<288.88 565.624> 1658.88 171.558<662.376 939.12>
LayerCount: 2
Fore
SplineSet
1748.48046875 1338.48046875 m 0
 1795.88299786 1290.74129308 1830.43804425 1155.32049962 1830.43804425 984.190907051 c 0
 1830.43804425 720.951293511 1748.67374167 373.217362657 1506.13378906 130.16015625 c 0
 1264.63964844 -111.333007812 917.333007812 -193.252929688 654.506835938 -193.252929688 c 0
 482.986328125 -193.252929688 347.306640625 -158.266601562 299.51953125 -110.48046875 c 0
 252.11700214 -62.7412930784 217.561955748 72.6795003843 217.561955748 243.809092949 c 0
 217.561955748 507.048706489 299.326258332 854.782637343 541.866210938 1097.83984375 c 0
 783.360351562 1339.33300781 1130.66699219 1421.25292969 1393.49316406 1421.25292969 c 0
 1565.01367188 1421.25292969 1700.69335938 1386.26660156 1748.48046875 1338.48046875 c 0
662.186523438 975.813476562 m 0
 464.212890625 778.693359375 397.653320312 500.506835938 389.120117188 288.879882812 c 1
 470.186523438 463.813476562 599.040039062 670.3203125 783.360351562 854.639648438 c 0
 966.827148438 1038.95996094 1172.48046875 1167.81347656 1347.41308594 1248.02636719 c 1
 1204.05371094 1242.05371094 887.466796875 1201.09375 662.186523438 975.813476562 c 0
1385.81347656 252.186523438 m 0
 1583.78710938 449.306640625 1650.34667969 727.493164062 1658.87988281 939.120117188 c 1
 1577.81347656 764.186523438 1448.95996094 557.6796875 1264.63964844 373.360351562 c 0
 1081.17285156 189.040039062 875.51953125 60.1865234375 700.586914062 -20.0263671875 c 1
 843.946289062 -14.0537109375 1160.53320312 26.90625 1385.81347656 252.186523438 c 0
EndSplineSet
Validated: 524289
EndChar

StartChar: u1F3C8
Encoding: 127944 127944 111
Width: 2048
HStem: 1338.11 43.2613G<1016.75 1136.16 1381 1479.51>
LayerCount: 2
Fore
SplineSet
257.70703125 305.09375 m 1
 715.09375 -152.29296875 l 1
 695.54307477 -153.02314013 676.362578393 -153.367696402 657.632907716 -153.367696402 c 0
 479.345395213 -153.367696402 341.907710938 -122.147061589 314.879882812 -95.1201171875 c 0
 287.629090247 -67.8684335783 256.825426184 70.9190246218 256.825426184 251.884546888 c 0
 256.825426184 269.252869315 257.109170025 287.009709349 257.70703125 305.09375 c 1
1116.16015625 1358.10644531 m 2
 1767.25292969 707.013671875 l 2
 1731.41308594 508.186523438 1652.05371094 299.120117188 1495.89355469 142.106445312 c 0
 1339.73339844 -14.90625 1130.66699219 -94.2666015625 930.986328125 -129.252929688 c 2
 279.893554688 521.83984375 l 2
 315.733398438 720.666992188 395.09375 929.733398438 551.252929688 1086.74707031 c 0
 707.413085938 1243.75976562 917.333007812 1322.26660156 1116.16015625 1358.10644531 c 2
844.799804688 315.333007812 m 1
 1322.66699219 793.200195312 l 1
 1203.20019531 912.666992188 l 1
 725.333007812 434.799804688 l 1
 844.799804688 315.333007812 l 1
1790.29296875 922.90625 m 1
 1332.90625 1380.29296875 l 1
 1352.45692523 1381.02314013 1371.63742161 1381.3676964 1390.36709228 1381.3676964 c 0
 1568.65460479 1381.3676964 1706.09228906 1350.14706159 1733.12011719 1323.12011719 c 0
 1760.37090975 1295.86843358 1791.17457382 1157.08097538 1791.17457382 976.115453112 c 0
 1791.17457382 958.747130685 1790.89082997 940.990290651 1790.29296875 922.90625 c 1
EndSplineSet
Validated: 524289
EndChar

StartChar: u1F3D0
Encoding: 127952 127952 112
Width: 2048
HStem: -71.2266 21G<482.133 552.721>
VStem: 170.667 341.333<416.88 767.158> 682.667 256<663.493 1400.49>
LayerCount: 2
Fore
SplineSet
512 1295.81347656 m 1
 512 416.879882812 l 1
 246.61328125 263.280273438 l 1
 197.973632812 370.799804688 170.666992188 489.413085938 170.666992188 614 c 0
 170.666992188 893.040039062 305.493164062 1139.65332031 512 1295.81347656 c 1
938.666992188 663.493164062 m 1
 682.666992188 515.013671875 l 1
 682.666992188 1395.65332031 l 2
 762.026367188 1430.63964844 848.212890625 1453.6796875 938.666992188 1463.06640625 c 1
 938.666992188 663.493164062 l 1
1024 515.866210938 m 1
 1280 367.38671875 l 1
 517.973632812 -71.2265625 l 2
 446.29296875 -19.1728515625 384 44.8271484375 331.946289062 116.506835938 c 1
 1024 515.866210938 l 1
1109.33300781 958.747070312 m 1
 1871.36035156 518.426757812 l 2
 1861.12011719 428.827148438 1837.2265625 343.493164062 1801.38671875 264.133789062 c 1
 1109.33300781 663.493164062 l 1
 1109.33300781 958.747070312 l 1
688.639648438 -171.06640625 m 1
 1450.66699219 269.252929688 l 1
 1716.05371094 115.653320312 l 1
 1560.74707031 -98.533203125 1309.01367188 -239.333007812 1024 -239.333007812 c 0
 904.533203125 -239.333007812 791.893554688 -214.586914062 688.639648438 -171.06640625 c 1
1870.50683594 715.546875 m 1
 1109.33300781 1155.86621094 l 1
 1109.33300781 1463.06640625 l 1
 1506.98632812 1423.81347656 1823.57324219 1110.63964844 1870.50683594 715.546875 c 1
EndSplineSet
Validated: 524289
EndChar

StartChar: uni26A7
Encoding: 9895 9895 113
Width: 2048
HStem: -154 170.667<768 938.667 1109.33 1280> 195.014 162.986<869.244 938.667 1109.33 1178.76> 955.333 170.667<869.565 1178.43> 1040.67 512<128 298.667 1749.33 1920> 1382 170.667<419.84 640 1408 1628.16>
VStem: 128 170.667<1040.67 1260.83> 554.667 170.666<502.243 811.102> 938.667 170.666<-324.667 -154 16.667 204.276> 1322.67 170.666<502.243 811.171> 1749.33 170.667<1040.67 1260.83>
LayerCount: 2
Fore
SplineSet
1024 955.333007812 m 0xe7c0
 859.306640625 955.333007812 725.333007812 821.360351562 725.333007812 656.666992188 c 0
 725.333007812 491.973632812 859.306640625 358 1024 358 c 0
 1188.69335938 358 1322.66699219 491.973632812 1322.66699219 656.666992188 c 0
 1322.66699219 821.360351562 1188.69335938 955.333007812 1024 955.333007812 c 0xe7c0
1410.55957031 922.90625 m 2
 1462.61328125 846.959960938 1493.33300781 755.653320312 1493.33300781 656.666992188 c 0
 1493.33300781 426.266601562 1327.78710938 235.120117188 1109.33300781 195.013671875 c 2
 1109.33300781 16.6669921875 l 1
 1280 16.6669921875 l 1
 1280 -154 l 1
 1109.33300781 -154 l 1
 1109.33300781 -324.666992188 l 1
 938.666992188 -324.666992188 l 1
 938.666992188 -154 l 1
 768 -154 l 1
 768 16.6669921875 l 1
 938.666992188 16.6669921875 l 1
 938.666992188 195.013671875 l 2
 720.212890625 235.120117188 554.666992188 426.266601562 554.666992188 656.666992188 c 0
 554.666992188 755.653320312 585.38671875 846.959960938 636.586914062 922.053710938 c 2
 581.120117188 977.51953125 l 1
 460.799804688 857.200195312 l 1
 340.48046875 977.51953125 l 1
 461.653320312 1098.69335938 l 1
 298.666992188 1260.82714844 l 1
 298.666992188 1040.66699219 l 1
 128 1040.66699219 l 1
 128 1552.66699219 l 1xd7c0
 640 1552.66699219 l 1
 640 1382 l 1
 419.83984375 1382 l 1
 581.973632812 1219.86621094 l 1
 703.146484375 1340.18652344 l 1
 823.466796875 1219.01367188 l 1
 703.146484375 1098.69335938 l 1
 758.61328125 1043.2265625 l 2
 833.70703125 1095.28027344 925.013671875 1126 1024 1126 c 0
 1122.98632812 1126 1214.29296875 1095.28027344 1289.38671875 1043.2265625 c 2
 1628.16015625 1382 l 1
 1408 1382 l 1
 1408 1552.66699219 l 1xefc0
 1920 1552.66699219 l 1
 1920 1040.66699219 l 1
 1749.33300781 1040.66699219 l 1xd7c0
 1749.33300781 1260.82714844 l 1
 1410.55957031 922.90625 l 2
EndSplineSet
Validated: 524289
EndChar

StartChar: uni2263
Encoding: 8803 8803 114
Width: 2048
HStem: 16.667 170.666<256 1792> 358 170.667<256 1792> 699.333 170.667<256 1792> 1040.67 170.666<256 1792>
LayerCount: 2
Fore
SplineSet
256 358 m 1
 256 528.666992188 l 1
 1792 528.666992188 l 1
 1792 358 l 1
 256 358 l 1
256 16.6669921875 m 1
 256 187.333007812 l 1
 1792 187.333007812 l 1
 1792 16.6669921875 l 1
 256 16.6669921875 l 1
256 699.333007812 m 1
 256 870 l 1
 1792 870 l 1
 1792 699.333007812 l 1
 256 699.333007812 l 1
256 1211.33300781 m 1
 1792 1211.33300781 l 1
 1792 1040.66699219 l 1
 256 1040.66699219 l 1
 256 1211.33300781 l 1
EndSplineSet
Validated: 524289
EndChar

StartChar: uni2196
Encoding: 8598 8598 115
Width: 2048
HStem: -68.667 21G<1566.35 1606.35> 1040.67 170.666<717.653 1280>
VStem: 426.667 170.666<358 920.347>
LayerCount: 2
Fore
SplineSet
426.666992188 358 m 1
 426.666992188 1211.33300781 l 1
 1280 1211.33300781 l 1
 1280 1040.66699219 l 1
 717.653320312 1040.66699219 l 1
 1706.66699219 51.6533203125 l 1
 1586.34667969 -68.6669921875 l 1
 597.333007812 920.346679688 l 1
 597.333007812 358 l 1
 426.666992188 358 l 1
EndSplineSet
Validated: 524289
EndChar

StartChar: uni2197
Encoding: 8599 8599 116
Width: 2048
HStem: -68.667 21G<441.653 481.653> 1040.67 170.666<768 1330.35>
VStem: 1450.67 170.666<358 920.347>
LayerCount: 2
Fore
SplineSet
768 1211.33300781 m 1
 1621.33300781 1211.33300781 l 1
 1621.33300781 358 l 1
 1450.66699219 358 l 1
 1450.66699219 920.346679688 l 1
 461.653320312 -68.6669921875 l 1
 341.333007812 51.6533203125 l 1
 1330.34667969 1040.66699219 l 1
 768 1040.66699219 l 1
 768 1211.33300781 l 1
EndSplineSet
Validated: 524289
EndChar

StartChar: uni2198
Encoding: 8600 8600 117
Width: 2048
HStem: 16.667 170.666<768 1330.35>
VStem: 1450.67 170.666<307.653 870>
LayerCount: 2
Fore
SplineSet
1621.33300781 870 m 1
 1621.33300781 16.6669921875 l 1
 768 16.6669921875 l 1
 768 187.333007812 l 1
 1330.34667969 187.333007812 l 1
 341.333007812 1176.34667969 l 1
 461.653320312 1296.66699219 l 1
 1450.66699219 307.653320312 l 1
 1450.66699219 870 l 1
 1621.33300781 870 l 1
EndSplineSet
Validated: 524289
EndChar

StartChar: uni2199
Encoding: 8601 8601 118
Width: 2048
HStem: 16.667 170.666<717.653 1280>
VStem: 426.667 170.666<307.653 870>
LayerCount: 2
Fore
SplineSet
1280 16.6669921875 m 1
 426.666992188 16.6669921875 l 1
 426.666992188 870 l 1
 597.333007812 870 l 1
 597.333007812 307.653320312 l 1
 1586.34667969 1296.66699219 l 1
 1706.66699219 1176.34667969 l 1
 717.653320312 187.333007812 l 1
 1280 187.333007812 l 1
 1280 16.6669921875 l 1
EndSplineSet
Validated: 524289
EndChar

StartChar: arrowdown
Encoding: 8595 8595 119
Width: 2048
VStem: 938.667 170.666<87.4932 1467.33>
LayerCount: 2
Fore
SplineSet
1621.33300781 358 m 1
 1024 -239.333007812 l 1
 426.666992188 358 l 1
 546.986328125 479.172851562 l 1
 938.666992188 87.4931640625 l 1
 938.666992188 1467.33300781 l 1
 1109.33300781 1467.33300781 l 1
 1109.33300781 87.4931640625 l 1
 1501.01367188 478.3203125 l 1
 1621.33300781 358 l 1
EndSplineSet
Validated: 524289
EndChar

StartChar: arrowup
Encoding: 8593 8593 120
Width: 2048
VStem: 938.667 170.666<-239.333 1140.51>
LayerCount: 2
Fore
SplineSet
426.666992188 870 m 1
 1024 1467.33300781 l 1
 1621.33300781 870 l 1
 1501.01367188 748.827148438 l 1
 1109.33300781 1140.50683594 l 1
 1109.33300781 -239.333007812 l 1
 938.666992188 -239.333007812 l 1
 938.666992188 1140.50683594 l 1
 546.986328125 749.6796875 l 1
 426.666992188 870 l 1
EndSplineSet
Validated: 524289
EndChar

StartChar: arrowleft
Encoding: 8592 8592 121
Width: 2048
HStem: 528.667 170.666<497.493 1877.33>
LayerCount: 2
Fore
SplineSet
768 16.6669921875 m 1
 170.666992188 614 l 1
 768 1211.33300781 l 1
 889.172851562 1091.01367188 l 1
 497.493164062 699.333007812 l 1
 1877.33300781 699.333007812 l 1
 1877.33300781 528.666992188 l 1
 497.493164062 528.666992188 l 1
 888.3203125 136.986328125 l 1
 768 16.6669921875 l 1
EndSplineSet
Validated: 524289
EndChar

StartChar: arrowright
Encoding: 8594 8594 122
Width: 2048
HStem: 528.667 170.666<170.667 1550.51>
LayerCount: 2
Fore
SplineSet
1280 1211.33300781 m 1
 1877.33300781 614 l 1
 1280 16.6669921875 l 1
 1158.82714844 136.986328125 l 1
 1550.50683594 528.666992188 l 1
 170.666992188 528.666992188 l 1
 170.666992188 699.333007812 l 1
 1550.50683594 699.333007812 l 1
 1159.6796875 1091.01367188 l 1
 1280 1211.33300781 l 1
EndSplineSet
Validated: 524289
EndChar

StartChar: uni2713
Encoding: 10003 10003 123
Width: 2048
LayerCount: 2
Fore
SplineSet
768 255.599609375 m 1
 1672.53320312 1160.13378906 l 1
 1792 1040.66699219 l 1
 768 16.6669921875 l 1
 290.133789062 494.533203125 l 1
 409.599609375 614 l 1
 768 255.599609375 l 1
EndSplineSet
Validated: 524289
EndChar

StartChar: u1F696
Encoding: 128662 128662 124
Width: 2048
HStem: 16.667 256<513.562 651.499 1396.5 1534.44> 528.667 170.666<457.835 651.499 1396.5 1590.17> 1083.33 298.667<768 1280> 1083.33 128<554.667 768 1280 1493.33>
VStem: 256 256<-143.661 16.667> 256 170.667<303.835 497.499> 682.667 682.666<303.835 497.499> 1536 256<-143.661 16.667> 1621.33 170.667<303.835 497.499>
LayerCount: 2
Fore
SplineSet
1614.50683594 1125.14648438 m 2xd6
 1792 614 l 1xd680
 1792 -68.6669921875 l 2xd3
 1792 -115.599609375 1753.59960938 -154 1706.66699219 -154 c 2
 1621.33300781 -154 l 2xd280
 1574.40039062 -154 1536 -115.599609375 1536 -68.6669921875 c 2
 1536 16.6669921875 l 1
 512 16.6669921875 l 1
 512 -68.6669921875 l 2xdb
 512 -115.599609375 473.599609375 -154 426.666992188 -154 c 2xd6
 341.333007812 -154 l 2
 294.400390625 -154 256 -115.599609375 256 -68.6669921875 c 2xda
 256 614 l 1
 433.493164062 1125.14648438 l 2
 451.413085938 1175.49316406 498.346679688 1211.33300781 554.666992188 1211.33300781 c 2
 768 1211.33300781 l 1xd6
 768 1382 l 1
 1280 1382 l 1xe6
 1280 1211.33300781 l 1
 1493.33300781 1211.33300781 l 2
 1549.65332031 1211.33300781 1597.44042969 1175.49316406 1614.50683594 1125.14648438 c 2xd6
554.666992188 272.666992188 m 0
 625.493164062 272.666992188 682.666992188 329.83984375 682.666992188 400.666992188 c 0
 682.666992188 471.493164062 625.493164062 528.666992188 554.666992188 528.666992188 c 0
 483.83984375 528.666992188 426.666992188 471.493164062 426.666992188 400.666992188 c 0
 426.666992188 329.83984375 483.83984375 272.666992188 554.666992188 272.666992188 c 0
1493.33300781 272.666992188 m 0
 1564.16015625 272.666992188 1621.33300781 329.83984375 1621.33300781 400.666992188 c 0
 1621.33300781 471.493164062 1564.16015625 528.666992188 1493.33300781 528.666992188 c 0
 1422.50683594 528.666992188 1365.33300781 471.493164062 1365.33300781 400.666992188 c 0
 1365.33300781 329.83984375 1422.50683594 272.666992188 1493.33300781 272.666992188 c 0
426.666992188 699.333007812 m 1
 1621.33300781 699.333007812 l 1
 1493.33300781 1083.33300781 l 1
 554.666992188 1083.33300781 l 1
 426.666992188 699.333007812 l 1
EndSplineSet
Validated: 524289
EndChar

StartChar: u1F9ED
Encoding: 129517 129517 125
Width: 2048
HStem: 520.134 187.732<944.869 1103.13>
VStem: 930.134 187.732<534.869 693.131>
LayerCount: 2
Fore
SplineSet
1024 707.866210938 m 0
 1076.05371094 707.866210938 1117.86621094 666.053710938 1117.86621094 614 c 0
 1117.86621094 561.946289062 1076.05371094 520.133789062 1024 520.133789062 c 0
 971.946289062 520.133789062 930.133789062 561.946289062 930.133789062 614 c 0
 930.133789062 666.053710938 971.946289062 707.866210938 1024 707.866210938 c 0
1024 1467.33300781 m 0
 1495.04003906 1467.33300781 1877.33300781 1085.04003906 1877.33300781 614 c 0
 1877.33300781 142.959960938 1495.04003906 -239.333007812 1024 -239.333007812 c 0
 552.959960938 -239.333007812 170.666992188 142.959960938 170.666992188 614 c 0
 170.666992188 1085.04003906 552.959960938 1467.33300781 1024 1467.33300781 c 0
1210.87988281 427.120117188 m 1
 1536 1126 l 1
 837.120117188 800.879882812 l 1
 512 102 l 1
 1210.87988281 427.120117188 l 1
EndSplineSet
Validated: 524289
EndChar

StartChar: u1F30A
Encoding: 127754 127754 126
Width: 2048
HStem: -97.6797 166.399<170.667 330.642 862.526 1185.45 1716.81 1877.33> 21.7871 166.399<435.874 758.792 1289.63 1611.73> 282.054 166.399<170.667 330.642 862.526 1185.45 1716.81 1877.33> 401.52 166.4<435.86 758.807 1289.61 1611.73> 661.787 166.399<170.667 330.642 862.526 1185.47 1716.81 1877.33> 781.253 166.4<435.881 758.785 1289.63 1611.73> 1041.52 164.693<170.667 330.642 862.526 1185.45 1716.81 1877.33> 1160.99 164.693<435.874 758.792 1289.35 1612>
LayerCount: 2
Fore
SplineSet
1450.66699219 188.186523438 m 0x40
 1565.86621094 188.186523438 1638.40039062 152.346679688 1702.40039062 119.919921875 c 0
 1757.86621094 90.0537109375 1800.53320312 68.7197265625 1877.33300781 68.7197265625 c 1
 1877.33300781 -97.6796875 l 1x80
 1760.42675781 -97.6796875 1689.59960938 -61.83984375 1625.59960938 -29.4130859375 c 0
 1570.13378906 0.453125 1527.46679688 21.787109375 1450.66699219 21.787109375 c 0x40
 1376.42675781 21.787109375 1331.20019531 -1.2529296875 1275.73339844 -29.4130859375 c 0
 1211.73339844 -61.83984375 1141.75976562 -97.6796875 1024 -97.6796875 c 0x80
 906.240234375 -97.6796875 836.266601562 -61.83984375 772.266601562 -29.4130859375 c 0
 716.799804688 0.453125 672.426757812 21.787109375 597.333007812 21.787109375 c 0x40
 522.240234375 21.787109375 477.866210938 -1.2529296875 422.400390625 -29.4130859375 c 0
 358.400390625 -61.83984375 285.866210938 -97.6796875 170.666992188 -97.6796875 c 1
 170.666992188 68.7197265625 l 1x80
 245.759765625 68.7197265625 290.133789062 91.759765625 345.599609375 119.919921875 c 0
 409.599609375 152.346679688 479.573242188 188.186523438 597.333007812 188.186523438 c 0x40
 715.09375 188.186523438 785.06640625 152.346679688 849.06640625 119.919921875 c 0
 904.533203125 90.0537109375 947.200195312 68.7197265625 1024 68.7197265625 c 0x80
 1098.24023438 68.7197265625 1143.46679688 91.759765625 1198.93359375 119.919921875 c 0
 1262.93359375 152.346679688 1335.46679688 188.186523438 1450.66699219 188.186523438 c 0x40
1450.66699219 567.919921875 m 0x10
 1565.86621094 567.919921875 1638.40039062 532.080078125 1702.40039062 499.653320312 c 0
 1757.86621094 469.787109375 1800.53320312 448.453125 1877.33300781 448.453125 c 1
 1877.33300781 282.053710938 l 1x20
 1760.42675781 282.053710938 1689.59960938 317.893554688 1625.59960938 350.3203125 c 0
 1570.13378906 380.186523438 1527.46679688 401.51953125 1450.66699219 401.51953125 c 0x10
 1373.86621094 401.51953125 1331.20019531 380.186523438 1275.73339844 350.3203125 c 0
 1211.73339844 318.747070312 1141.75976562 282.053710938 1024 282.053710938 c 0x20
 906.240234375 282.053710938 836.266601562 317.893554688 772.266601562 350.3203125 c 0
 716.799804688 380.186523438 674.133789062 401.51953125 597.333007812 401.51953125 c 0x10
 520.533203125 401.51953125 477.866210938 380.186523438 422.400390625 350.3203125 c 0
 358.400390625 318.747070312 285.866210938 282.053710938 170.666992188 282.053710938 c 1
 170.666992188 448.453125 l 1x20
 245.759765625 448.453125 290.133789062 472.346679688 345.599609375 499.653320312 c 0
 409.599609375 531.2265625 479.573242188 567.919921875 597.333007812 567.919921875 c 0x10
 715.09375 567.919921875 785.06640625 532.080078125 849.06640625 499.653320312 c 0
 904.533203125 469.787109375 947.200195312 448.453125 1024 448.453125 c 0x20
 1098.24023438 448.453125 1143.46679688 472.346679688 1198.93359375 499.653320312 c 0
 1262.93359375 531.2265625 1335.46679688 567.919921875 1450.66699219 567.919921875 c 0x10
1702.40039062 1257.41308594 m 0
 1757.86621094 1229.25292969 1800.53320312 1207.91992188 1877.33300781 1207.91992188 c 1
 1877.33300781 1041.51953125 l 1x02
 1760.42675781 1041.51953125 1689.59960938 1077.36035156 1625.59960938 1109.78710938 c 0
 1570.13378906 1139.65332031 1527.46679688 1160.98632812 1450.66699219 1160.98632812 c 0x01
 1376.42675781 1160.98632812 1331.20019531 1137.09375 1275.73339844 1109.78710938 c 0
 1211.73339844 1078.21289062 1141.75976562 1041.51953125 1024 1041.51953125 c 0x02
 906.240234375 1041.51953125 836.266601562 1077.36035156 772.266601562 1109.78710938 c 0
 716.799804688 1139.65332031 672.426757812 1160.98632812 597.333007812 1160.98632812 c 0x01
 522.240234375 1160.98632812 477.866210938 1137.94628906 422.400390625 1109.78710938 c 0
 358.400390625 1078.21289062 285.866210938 1041.51953125 170.666992188 1041.51953125 c 1
 170.666992188 1206.21289062 l 1x02
 245.759765625 1206.21289062 290.133789062 1229.25292969 345.599609375 1257.41308594 c 0
 409.599609375 1289.83984375 479.573242188 1325.6796875 597.333007812 1325.6796875 c 0x01
 715.09375 1325.6796875 785.06640625 1288.98632812 849.06640625 1257.41308594 c 0
 904.533203125 1227.546875 947.200195312 1206.21289062 1024 1206.21289062 c 0x02
 1098.24023438 1206.21289062 1143.46679688 1230.10644531 1198.93359375 1257.41308594 c 0
 1262.93359375 1289.83984375 1333.75976562 1325.6796875 1450.66699219 1325.6796875 c 0x01
 1567.57324219 1325.6796875 1638.40039062 1289.83984375 1702.40039062 1257.41308594 c 0
1450.66699219 947.653320312 m 0x04
 1565.86621094 947.653320312 1638.40039062 911.813476562 1702.40039062 879.38671875 c 0
 1757.86621094 849.51953125 1800.53320312 828.186523438 1877.33300781 828.186523438 c 1
 1877.33300781 661.787109375 l 1x08
 1760.42675781 661.787109375 1689.59960938 697.626953125 1625.59960938 730.053710938 c 0
 1570.13378906 759.919921875 1527.46679688 781.252929688 1450.66699219 781.252929688 c 0x04
 1376.42675781 781.252929688 1331.20019531 757.360351562 1275.73339844 730.053710938 c 0
 1211.73339844 698.48046875 1141.75976562 661.787109375 1024 661.787109375 c 0x08
 906.240234375 661.787109375 836.266601562 697.626953125 772.266601562 730.053710938 c 0
 716.799804688 759.919921875 671.573242188 781.252929688 597.333007812 781.252929688 c 0x04
 523.09375 781.252929688 477.866210938 757.360351562 422.400390625 730.053710938 c 0
 358.400390625 698.48046875 285.866210938 661.787109375 170.666992188 661.787109375 c 1
 170.666992188 828.186523438 l 1x08
 247.466796875 828.186523438 290.133789062 849.51953125 345.599609375 879.38671875 c 0
 409.599609375 910.959960938 479.573242188 947.653320312 597.333007812 947.653320312 c 0x04
 715.09375 947.653320312 785.06640625 911.813476562 849.06640625 879.38671875 c 0
 904.533203125 849.51953125 947.200195312 828.186523438 1024 828.186523438 c 0x08
 1100.79980469 828.186523438 1143.46679688 849.51953125 1198.93359375 879.38671875 c 0
 1262.93359375 910.959960938 1335.46679688 947.653320312 1450.66699219 947.653320312 c 0x04
EndSplineSet
Validated: 524289
EndChar

StartChar: u1F890
Encoding: 129168 129168 127
Width: 2048
VStem: 768 426.667
LayerCount: 2
Fore
SplineSet
1194.66699219 1040.66699219 m 1
 1194.66699219 187.333007812 l 1
 768 614 l 1
 1194.66699219 1040.66699219 l 1
EndSplineSet
Validated: 524289
EndChar

StartChar: u1F892
Encoding: 129170 129170 128
Width: 2048
VStem: 853.333 426.667
LayerCount: 2
Fore
SplineSet
853.333007812 187.333007812 m 1
 853.333007812 1040.66699219 l 1
 1280 614 l 1
 853.333007812 187.333007812 l 1
EndSplineSet
Validated: 524289
EndChar

StartChar: u1F893
Encoding: 129171 129171 129
Width: 2048
HStem: 358 426.667
LayerCount: 2
Fore
SplineSet
597.333007812 784.666992188 m 1
 1450.66699219 784.666992188 l 1
 1024 358 l 1
 597.333007812 784.666992188 l 1
EndSplineSet
Validated: 524289
EndChar

StartChar: u1F891
Encoding: 129169 129169 130
Width: 2048
HStem: 443.333 426.667
LayerCount: 2
Fore
SplineSet
597.333007812 443.333007812 m 1
 1024 870 l 1
 1450.66699219 443.333007812 l 1
 597.333007812 443.333007812 l 1
EndSplineSet
Validated: 524289
EndChar

StartChar: u1F9EF
Encoding: 129519 129519 131
Width: 2048
Flags: H
LayerCount: 2
Fore
SplineSet
597.333007812 16.6669921875 m 1
 1450.66699219 16.6669921875 l 1
 1450.66699219 -68.6669921875 l 2
 1450.66699219 -162.533203125 1373.86621094 -239.333007812 1280 -239.333007812 c 2
 768 -239.333007812 l 2
 674.133789062 -239.333007812 597.333007812 -162.533203125 597.333007812 -68.6669921875 c 2
 597.333007812 16.6669921875 l 1
597.333007812 102 m 1
 597.333007812 528.666992188 l 1
 1450.66699219 528.666992188 l 1
 1450.66699219 102 l 1
 597.333007812 102 l 1
1450.66699219 1382 m 1
 1450.66699219 870 l 1
 1181.86621094 926.3203125 l 2
 1181.01367188 926.3203125 1181.01367188 925.466796875 1180.16015625 924.61328125 c 1
 1312.42675781 871.70703125 1412.26660156 755.653320312 1442.13378906 614 c 1
 605.866210938 614 l 1
 634.879882812 755.653320312 735.573242188 871.70703125 867.83984375 924.61328125 c 1
 839.6796875 946.799804688 816.639648438 974.106445312 799.573242188 1005.6796875 c 2
 426.666992188 1083.33300781 l 1
 426.666992188 1168.66699219 l 1
 799.573242188 1246.3203125 l 2
 842.240234375 1326.53320312 926.719726562 1382 1024 1382 c 0
 1083.73339844 1382 1138.34667969 1360.66699219 1181.86621094 1325.6796875 c 2
 1450.66699219 1382 l 1
1109.33300781 1126 m 0
 1106.7734375 1176.34667969 1070.93359375 1211.33300781 1024 1211.33300781 c 0
 977.06640625 1211.33300781 938.666992188 1172.93359375 938.666992188 1126 c 0
 938.666992188 1079.06640625 977.06640625 1040.66699219 1024 1040.66699219 c 0
 1070.93359375 1040.66699219 1109.33300781 1079.06640625 1109.33300781 1126 c 0
EndSplineSet
EndChar
